G04 #@! TF.GenerationSoftware,KiCad,Pcbnew,6.0.7*
G04 #@! TF.CreationDate,2022-10-27T17:53:38+13:00*
G04 #@! TF.ProjectId,i_n_c_u_r,695f6e5f-635f-4755-9f72-2e6b69636164,rev?*
G04 #@! TF.SameCoordinates,Original*
G04 #@! TF.FileFunction,Legend,Top*
G04 #@! TF.FilePolarity,Positive*
%FSLAX46Y46*%
G04 Gerber Fmt 4.6, Leading zero omitted, Abs format (unit mm)*
G04 Created by KiCad (PCBNEW 6.0.7) date 2022-10-27 17:53:38*
%MOMM*%
%LPD*%
G01*
G04 APERTURE LIST*
%ADD10C,0.200000*%
%ADD11C,0.300000*%
%ADD12C,0.150000*%
%ADD13C,0.120000*%
%ADD14C,0.127000*%
%ADD15C,0.400000*%
G04 APERTURE END LIST*
D10*
X76000000Y-102000000D02*
X76000000Y-46000000D01*
X77500000Y-47000000D02*
X77500000Y-103000000D01*
X130000000Y-97500000D02*
X130000000Y-101000000D01*
X162500000Y-103000000D02*
X162500000Y-47000000D01*
X164000000Y-104000000D02*
X164000000Y-102000000D01*
X162500000Y-47000000D02*
X77500000Y-47000000D01*
X164000000Y-46000000D02*
X164000000Y-102000000D01*
X130000000Y-99500000D02*
X130000000Y-97500000D01*
X76000000Y-102000000D02*
X76000000Y-104000000D01*
X76000000Y-46000000D02*
X164000000Y-46000000D01*
X77500000Y-103000000D02*
X162500000Y-103000000D01*
X76000000Y-104000000D02*
X164000000Y-104000000D01*
X130000000Y-99500000D02*
X101000000Y-99500000D01*
D11*
X141392857Y-49971071D02*
X141392857Y-48971071D01*
X141392857Y-48471071D02*
X141321428Y-48542500D01*
X141392857Y-48613928D01*
X141464285Y-48542500D01*
X141392857Y-48471071D01*
X141392857Y-48613928D01*
X141750000Y-50113928D02*
X142892857Y-50113928D01*
X143250000Y-48971071D02*
X143250000Y-49971071D01*
X143250000Y-49113928D02*
X143321428Y-49042500D01*
X143464285Y-48971071D01*
X143678571Y-48971071D01*
X143821428Y-49042500D01*
X143892857Y-49185357D01*
X143892857Y-49971071D01*
X144250000Y-50113928D02*
X145392857Y-50113928D01*
X146392857Y-49899642D02*
X146250000Y-49971071D01*
X145964285Y-49971071D01*
X145821428Y-49899642D01*
X145750000Y-49828214D01*
X145678571Y-49685357D01*
X145678571Y-49256785D01*
X145750000Y-49113928D01*
X145821428Y-49042500D01*
X145964285Y-48971071D01*
X146250000Y-48971071D01*
X146392857Y-49042500D01*
X146678571Y-50113928D02*
X147821428Y-50113928D01*
X148821428Y-48971071D02*
X148821428Y-49971071D01*
X148178571Y-48971071D02*
X148178571Y-49756785D01*
X148250000Y-49899642D01*
X148392857Y-49971071D01*
X148607142Y-49971071D01*
X148750000Y-49899642D01*
X148821428Y-49828214D01*
X149178571Y-50113928D02*
X150321428Y-50113928D01*
X150678571Y-49971071D02*
X150678571Y-48971071D01*
X150678571Y-49256785D02*
X150750000Y-49113928D01*
X150821428Y-49042500D01*
X150964285Y-48971071D01*
X151107142Y-48971071D01*
X152607142Y-48971071D02*
X152964285Y-49971071D01*
X153321428Y-48971071D01*
X154607142Y-48471071D02*
X153892857Y-48471071D01*
X153821428Y-49185357D01*
X153892857Y-49113928D01*
X154035714Y-49042500D01*
X154392857Y-49042500D01*
X154535714Y-49113928D01*
X154607142Y-49185357D01*
X154678571Y-49328214D01*
X154678571Y-49685357D01*
X154607142Y-49828214D01*
X154535714Y-49899642D01*
X154392857Y-49971071D01*
X154035714Y-49971071D01*
X153892857Y-49899642D01*
X153821428Y-49828214D01*
X141928571Y-52314642D02*
X141785714Y-52386071D01*
X141500000Y-52386071D01*
X141357142Y-52314642D01*
X141285714Y-52243214D01*
X141214285Y-52100357D01*
X141214285Y-51671785D01*
X141285714Y-51528928D01*
X141357142Y-51457500D01*
X141500000Y-51386071D01*
X141785714Y-51386071D01*
X141928571Y-51457500D01*
X142428571Y-51386071D02*
X142785714Y-52386071D01*
X143142857Y-51386071D02*
X142785714Y-52386071D01*
X142642857Y-52743214D01*
X142571428Y-52814642D01*
X142428571Y-52886071D01*
X143714285Y-52386071D02*
X143714285Y-50886071D01*
X143714285Y-51457500D02*
X143857142Y-51386071D01*
X144142857Y-51386071D01*
X144285714Y-51457500D01*
X144357142Y-51528928D01*
X144428571Y-51671785D01*
X144428571Y-52100357D01*
X144357142Y-52243214D01*
X144285714Y-52314642D01*
X144142857Y-52386071D01*
X143857142Y-52386071D01*
X143714285Y-52314642D01*
X145642857Y-52314642D02*
X145500000Y-52386071D01*
X145214285Y-52386071D01*
X145071428Y-52314642D01*
X145000000Y-52171785D01*
X145000000Y-51600357D01*
X145071428Y-51457500D01*
X145214285Y-51386071D01*
X145500000Y-51386071D01*
X145642857Y-51457500D01*
X145714285Y-51600357D01*
X145714285Y-51743214D01*
X145000000Y-51886071D01*
X146357142Y-52386071D02*
X146357142Y-51386071D01*
X146357142Y-51671785D02*
X146428571Y-51528928D01*
X146500000Y-51457500D01*
X146642857Y-51386071D01*
X146785714Y-51386071D01*
X147285714Y-52386071D02*
X147285714Y-50886071D01*
X147285714Y-51457500D02*
X147428571Y-51386071D01*
X147714285Y-51386071D01*
X147857142Y-51457500D01*
X147928571Y-51528928D01*
X148000000Y-51671785D01*
X148000000Y-52100357D01*
X147928571Y-52243214D01*
X147857142Y-52314642D01*
X147714285Y-52386071D01*
X147428571Y-52386071D01*
X147285714Y-52314642D01*
X148857142Y-52386071D02*
X148714285Y-52314642D01*
X148642857Y-52243214D01*
X148571428Y-52100357D01*
X148571428Y-51671785D01*
X148642857Y-51528928D01*
X148714285Y-51457500D01*
X148857142Y-51386071D01*
X149071428Y-51386071D01*
X149214285Y-51457500D01*
X149285714Y-51528928D01*
X149357142Y-51671785D01*
X149357142Y-52100357D01*
X149285714Y-52243214D01*
X149214285Y-52314642D01*
X149071428Y-52386071D01*
X148857142Y-52386071D01*
X149857142Y-51386071D02*
X150214285Y-52386071D01*
X150571428Y-51386071D02*
X150214285Y-52386071D01*
X150071428Y-52743214D01*
X150000000Y-52814642D01*
X149857142Y-52886071D01*
X151785714Y-50886071D02*
X151500000Y-50886071D01*
X151357142Y-50957500D01*
X151285714Y-51028928D01*
X151142857Y-51243214D01*
X151071428Y-51528928D01*
X151071428Y-52100357D01*
X151142857Y-52243214D01*
X151214285Y-52314642D01*
X151357142Y-52386071D01*
X151642857Y-52386071D01*
X151785714Y-52314642D01*
X151857142Y-52243214D01*
X151928571Y-52100357D01*
X151928571Y-51743214D01*
X151857142Y-51600357D01*
X151785714Y-51528928D01*
X151642857Y-51457500D01*
X151357142Y-51457500D01*
X151214285Y-51528928D01*
X151142857Y-51600357D01*
X151071428Y-51743214D01*
X153214285Y-50886071D02*
X152928571Y-50886071D01*
X152785714Y-50957500D01*
X152714285Y-51028928D01*
X152571428Y-51243214D01*
X152500000Y-51528928D01*
X152500000Y-52100357D01*
X152571428Y-52243214D01*
X152642857Y-52314642D01*
X152785714Y-52386071D01*
X153071428Y-52386071D01*
X153214285Y-52314642D01*
X153285714Y-52243214D01*
X153357142Y-52100357D01*
X153357142Y-51743214D01*
X153285714Y-51600357D01*
X153214285Y-51528928D01*
X153071428Y-51457500D01*
X152785714Y-51457500D01*
X152642857Y-51528928D01*
X152571428Y-51600357D01*
X152500000Y-51743214D01*
X154642857Y-50886071D02*
X154357142Y-50886071D01*
X154214285Y-50957500D01*
X154142857Y-51028928D01*
X154000000Y-51243214D01*
X153928571Y-51528928D01*
X153928571Y-52100357D01*
X154000000Y-52243214D01*
X154071428Y-52314642D01*
X154214285Y-52386071D01*
X154500000Y-52386071D01*
X154642857Y-52314642D01*
X154714285Y-52243214D01*
X154785714Y-52100357D01*
X154785714Y-51743214D01*
X154714285Y-51600357D01*
X154642857Y-51528928D01*
X154500000Y-51457500D01*
X154214285Y-51457500D01*
X154071428Y-51528928D01*
X154000000Y-51600357D01*
X153928571Y-51743214D01*
D12*
X74918751Y-114078095D02*
X73918751Y-114078095D01*
X73918751Y-113840000D01*
X73966371Y-113697142D01*
X74061609Y-113601904D01*
X74156847Y-113554285D01*
X74347323Y-113506666D01*
X74490180Y-113506666D01*
X74680656Y-113554285D01*
X74775894Y-113601904D01*
X74871132Y-113697142D01*
X74918751Y-113840000D01*
X74918751Y-114078095D01*
X74918751Y-112554285D02*
X74918751Y-113125714D01*
X74918751Y-112840000D02*
X73918751Y-112840000D01*
X74061609Y-112935238D01*
X74156847Y-113030476D01*
X74204466Y-113125714D01*
X78218751Y-128278095D02*
X77218751Y-128278095D01*
X77218751Y-128040000D01*
X77266371Y-127897142D01*
X77361609Y-127801904D01*
X77456847Y-127754285D01*
X77647323Y-127706666D01*
X77790180Y-127706666D01*
X77980656Y-127754285D01*
X78075894Y-127801904D01*
X78171132Y-127897142D01*
X78218751Y-128040000D01*
X78218751Y-128278095D01*
X77313990Y-127325714D02*
X77266371Y-127278095D01*
X77218751Y-127182857D01*
X77218751Y-126944761D01*
X77266371Y-126849523D01*
X77313990Y-126801904D01*
X77409228Y-126754285D01*
X77504466Y-126754285D01*
X77647323Y-126801904D01*
X78218751Y-127373333D01*
X78218751Y-126754285D01*
X94718751Y-113878095D02*
X93718751Y-113878095D01*
X93718751Y-113640000D01*
X93766371Y-113497142D01*
X93861609Y-113401904D01*
X93956847Y-113354285D01*
X94147323Y-113306666D01*
X94290180Y-113306666D01*
X94480656Y-113354285D01*
X94575894Y-113401904D01*
X94671132Y-113497142D01*
X94718751Y-113640000D01*
X94718751Y-113878095D01*
X93718751Y-112973333D02*
X93718751Y-112354285D01*
X94099704Y-112687619D01*
X94099704Y-112544761D01*
X94147323Y-112449523D01*
X94194942Y-112401904D01*
X94290180Y-112354285D01*
X94528275Y-112354285D01*
X94623513Y-112401904D01*
X94671132Y-112449523D01*
X94718751Y-112544761D01*
X94718751Y-112830476D01*
X94671132Y-112925714D01*
X94623513Y-112973333D01*
X95718751Y-127278095D02*
X94718751Y-127278095D01*
X94718751Y-127040000D01*
X94766371Y-126897142D01*
X94861609Y-126801904D01*
X94956847Y-126754285D01*
X95147323Y-126706666D01*
X95290180Y-126706666D01*
X95480656Y-126754285D01*
X95575894Y-126801904D01*
X95671132Y-126897142D01*
X95718751Y-127040000D01*
X95718751Y-127278095D01*
X95052085Y-125849523D02*
X95718751Y-125849523D01*
X94671132Y-126087619D02*
X95385418Y-126325714D01*
X95385418Y-125706666D01*
X151118751Y-113678095D02*
X150118751Y-113678095D01*
X150118751Y-113440000D01*
X150166371Y-113297142D01*
X150261609Y-113201904D01*
X150356847Y-113154285D01*
X150547323Y-113106666D01*
X150690180Y-113106666D01*
X150880656Y-113154285D01*
X150975894Y-113201904D01*
X151071132Y-113297142D01*
X151118751Y-113440000D01*
X151118751Y-113678095D01*
X150118751Y-112201904D02*
X150118751Y-112678095D01*
X150594942Y-112725714D01*
X150547323Y-112678095D01*
X150499704Y-112582857D01*
X150499704Y-112344761D01*
X150547323Y-112249523D01*
X150594942Y-112201904D01*
X150690180Y-112154285D01*
X150928275Y-112154285D01*
X151023513Y-112201904D01*
X151071132Y-112249523D01*
X151118751Y-112344761D01*
X151118751Y-112582857D01*
X151071132Y-112678095D01*
X151023513Y-112725714D01*
X148718751Y-127778095D02*
X147718751Y-127778095D01*
X147718751Y-127540000D01*
X147766371Y-127397142D01*
X147861609Y-127301904D01*
X147956847Y-127254285D01*
X148147323Y-127206666D01*
X148290180Y-127206666D01*
X148480656Y-127254285D01*
X148575894Y-127301904D01*
X148671132Y-127397142D01*
X148718751Y-127540000D01*
X148718751Y-127778095D01*
X147718751Y-126349523D02*
X147718751Y-126540000D01*
X147766371Y-126635238D01*
X147813990Y-126682857D01*
X147956847Y-126778095D01*
X148147323Y-126825714D01*
X148528275Y-126825714D01*
X148623513Y-126778095D01*
X148671132Y-126730476D01*
X148718751Y-126635238D01*
X148718751Y-126444761D01*
X148671132Y-126349523D01*
X148623513Y-126301904D01*
X148528275Y-126254285D01*
X148290180Y-126254285D01*
X148194942Y-126301904D01*
X148147323Y-126349523D01*
X148099704Y-126444761D01*
X148099704Y-126635238D01*
X148147323Y-126730476D01*
X148194942Y-126778095D01*
X148290180Y-126825714D01*
X161952380Y-113738095D02*
X160952380Y-113738095D01*
X160952380Y-113500000D01*
X161000000Y-113357142D01*
X161095238Y-113261904D01*
X161190476Y-113214285D01*
X161380952Y-113166666D01*
X161523809Y-113166666D01*
X161714285Y-113214285D01*
X161809523Y-113261904D01*
X161904761Y-113357142D01*
X161952380Y-113500000D01*
X161952380Y-113738095D01*
X160952380Y-112833333D02*
X160952380Y-112166666D01*
X161952380Y-112595238D01*
X162952380Y-127738095D02*
X161952380Y-127738095D01*
X161952380Y-127500000D01*
X162000000Y-127357142D01*
X162095238Y-127261904D01*
X162190476Y-127214285D01*
X162380952Y-127166666D01*
X162523809Y-127166666D01*
X162714285Y-127214285D01*
X162809523Y-127261904D01*
X162904761Y-127357142D01*
X162952380Y-127500000D01*
X162952380Y-127738095D01*
X162380952Y-126595238D02*
X162333333Y-126690476D01*
X162285714Y-126738095D01*
X162190476Y-126785714D01*
X162142857Y-126785714D01*
X162047619Y-126738095D01*
X162000000Y-126690476D01*
X161952380Y-126595238D01*
X161952380Y-126404761D01*
X162000000Y-126309523D01*
X162047619Y-126261904D01*
X162142857Y-126214285D01*
X162190476Y-126214285D01*
X162285714Y-126261904D01*
X162333333Y-126309523D01*
X162380952Y-126404761D01*
X162380952Y-126595238D01*
X162428571Y-126690476D01*
X162476190Y-126738095D01*
X162571428Y-126785714D01*
X162761904Y-126785714D01*
X162857142Y-126738095D01*
X162904761Y-126690476D01*
X162952380Y-126595238D01*
X162952380Y-126404761D01*
X162904761Y-126309523D01*
X162857142Y-126261904D01*
X162761904Y-126214285D01*
X162571428Y-126214285D01*
X162476190Y-126261904D01*
X162428571Y-126309523D01*
X162380952Y-126404761D01*
X143968751Y-80628095D02*
X142968751Y-80628095D01*
X142968751Y-80390000D01*
X143016371Y-80247142D01*
X143111609Y-80151904D01*
X143206847Y-80104285D01*
X143397323Y-80056666D01*
X143540180Y-80056666D01*
X143730656Y-80104285D01*
X143825894Y-80151904D01*
X143921132Y-80247142D01*
X143968751Y-80390000D01*
X143968751Y-80628095D01*
X143968751Y-79580476D02*
X143968751Y-79390000D01*
X143921132Y-79294761D01*
X143873513Y-79247142D01*
X143730656Y-79151904D01*
X143540180Y-79104285D01*
X143159228Y-79104285D01*
X143063990Y-79151904D01*
X143016371Y-79199523D01*
X142968751Y-79294761D01*
X142968751Y-79485238D01*
X143016371Y-79580476D01*
X143063990Y-79628095D01*
X143159228Y-79675714D01*
X143397323Y-79675714D01*
X143492561Y-79628095D01*
X143540180Y-79580476D01*
X143587799Y-79485238D01*
X143587799Y-79294761D01*
X143540180Y-79199523D01*
X143492561Y-79151904D01*
X143397323Y-79104285D01*
X80166666Y-107952380D02*
X80166666Y-108666666D01*
X80119047Y-108809523D01*
X80023809Y-108904761D01*
X79880952Y-108952380D01*
X79785714Y-108952380D01*
X81166666Y-108952380D02*
X80595238Y-108952380D01*
X80880952Y-108952380D02*
X80880952Y-107952380D01*
X80785714Y-108095238D01*
X80690476Y-108190476D01*
X80595238Y-108238095D01*
X99166666Y-108252380D02*
X99166666Y-108966666D01*
X99119047Y-109109523D01*
X99023809Y-109204761D01*
X98880952Y-109252380D01*
X98785714Y-109252380D01*
X99595238Y-108347619D02*
X99642857Y-108300000D01*
X99738095Y-108252380D01*
X99976190Y-108252380D01*
X100071428Y-108300000D01*
X100119047Y-108347619D01*
X100166666Y-108442857D01*
X100166666Y-108538095D01*
X100119047Y-108680952D01*
X99547619Y-109252380D01*
X100166666Y-109252380D01*
X133166666Y-108152380D02*
X133166666Y-108866666D01*
X133119047Y-109009523D01*
X133023809Y-109104761D01*
X132880952Y-109152380D01*
X132785714Y-109152380D01*
X133547619Y-108152380D02*
X134166666Y-108152380D01*
X133833333Y-108533333D01*
X133976190Y-108533333D01*
X134071428Y-108580952D01*
X134119047Y-108628571D01*
X134166666Y-108723809D01*
X134166666Y-108961904D01*
X134119047Y-109057142D01*
X134071428Y-109104761D01*
X133976190Y-109152380D01*
X133690476Y-109152380D01*
X133595238Y-109104761D01*
X133547619Y-109057142D01*
X124166666Y-123122380D02*
X124166666Y-123836666D01*
X124119047Y-123979523D01*
X124023809Y-124074761D01*
X123880952Y-124122380D01*
X123785714Y-124122380D01*
X125071428Y-123122380D02*
X124880952Y-123122380D01*
X124785714Y-123170000D01*
X124738095Y-123217619D01*
X124642857Y-123360476D01*
X124595238Y-123550952D01*
X124595238Y-123931904D01*
X124642857Y-124027142D01*
X124690476Y-124074761D01*
X124785714Y-124122380D01*
X124976190Y-124122380D01*
X125071428Y-124074761D01*
X125119047Y-124027142D01*
X125166666Y-123931904D01*
X125166666Y-123693809D01*
X125119047Y-123598571D01*
X125071428Y-123550952D01*
X124976190Y-123503333D01*
X124785714Y-123503333D01*
X124690476Y-123550952D01*
X124642857Y-123598571D01*
X124595238Y-123693809D01*
X80833333Y-121452380D02*
X80500000Y-120976190D01*
X80261904Y-121452380D02*
X80261904Y-120452380D01*
X80642857Y-120452380D01*
X80738095Y-120500000D01*
X80785714Y-120547619D01*
X80833333Y-120642857D01*
X80833333Y-120785714D01*
X80785714Y-120880952D01*
X80738095Y-120928571D01*
X80642857Y-120976190D01*
X80261904Y-120976190D01*
X81785714Y-121452380D02*
X81214285Y-121452380D01*
X81500000Y-121452380D02*
X81500000Y-120452380D01*
X81404761Y-120595238D01*
X81309523Y-120690476D01*
X81214285Y-120738095D01*
X99833333Y-121452380D02*
X99500000Y-120976190D01*
X99261904Y-121452380D02*
X99261904Y-120452380D01*
X99642857Y-120452380D01*
X99738095Y-120500000D01*
X99785714Y-120547619D01*
X99833333Y-120642857D01*
X99833333Y-120785714D01*
X99785714Y-120880952D01*
X99738095Y-120928571D01*
X99642857Y-120976190D01*
X99261904Y-120976190D01*
X100214285Y-120547619D02*
X100261904Y-120500000D01*
X100357142Y-120452380D01*
X100595238Y-120452380D01*
X100690476Y-120500000D01*
X100738095Y-120547619D01*
X100785714Y-120642857D01*
X100785714Y-120738095D01*
X100738095Y-120880952D01*
X100166666Y-121452380D01*
X100785714Y-121452380D01*
X139833333Y-121452380D02*
X139500000Y-120976190D01*
X139261904Y-121452380D02*
X139261904Y-120452380D01*
X139642857Y-120452380D01*
X139738095Y-120500000D01*
X139785714Y-120547619D01*
X139833333Y-120642857D01*
X139833333Y-120785714D01*
X139785714Y-120880952D01*
X139738095Y-120928571D01*
X139642857Y-120976190D01*
X139261904Y-120976190D01*
X140166666Y-120452380D02*
X140785714Y-120452380D01*
X140452380Y-120833333D01*
X140595238Y-120833333D01*
X140690476Y-120880952D01*
X140738095Y-120928571D01*
X140785714Y-121023809D01*
X140785714Y-121261904D01*
X140738095Y-121357142D01*
X140690476Y-121404761D01*
X140595238Y-121452380D01*
X140309523Y-121452380D01*
X140214285Y-121404761D01*
X140166666Y-121357142D01*
X159833333Y-121452380D02*
X159500000Y-120976190D01*
X159261904Y-121452380D02*
X159261904Y-120452380D01*
X159642857Y-120452380D01*
X159738095Y-120500000D01*
X159785714Y-120547619D01*
X159833333Y-120642857D01*
X159833333Y-120785714D01*
X159785714Y-120880952D01*
X159738095Y-120928571D01*
X159642857Y-120976190D01*
X159261904Y-120976190D01*
X160690476Y-120785714D02*
X160690476Y-121452380D01*
X160452380Y-120404761D02*
X160214285Y-121119047D01*
X160833333Y-121119047D01*
X140383333Y-91852380D02*
X140050000Y-91376190D01*
X139811904Y-91852380D02*
X139811904Y-90852380D01*
X140192857Y-90852380D01*
X140288095Y-90900000D01*
X140335714Y-90947619D01*
X140383333Y-91042857D01*
X140383333Y-91185714D01*
X140335714Y-91280952D01*
X140288095Y-91328571D01*
X140192857Y-91376190D01*
X139811904Y-91376190D01*
X141288095Y-90852380D02*
X140811904Y-90852380D01*
X140764285Y-91328571D01*
X140811904Y-91280952D01*
X140907142Y-91233333D01*
X141145238Y-91233333D01*
X141240476Y-91280952D01*
X141288095Y-91328571D01*
X141335714Y-91423809D01*
X141335714Y-91661904D01*
X141288095Y-91757142D01*
X141240476Y-91804761D01*
X141145238Y-91852380D01*
X140907142Y-91852380D01*
X140811904Y-91804761D01*
X140764285Y-91757142D01*
X145583333Y-73902380D02*
X145250000Y-73426190D01*
X145011904Y-73902380D02*
X145011904Y-72902380D01*
X145392857Y-72902380D01*
X145488095Y-72950000D01*
X145535714Y-72997619D01*
X145583333Y-73092857D01*
X145583333Y-73235714D01*
X145535714Y-73330952D01*
X145488095Y-73378571D01*
X145392857Y-73426190D01*
X145011904Y-73426190D01*
X146440476Y-72902380D02*
X146250000Y-72902380D01*
X146154761Y-72950000D01*
X146107142Y-72997619D01*
X146011904Y-73140476D01*
X145964285Y-73330952D01*
X145964285Y-73711904D01*
X146011904Y-73807142D01*
X146059523Y-73854761D01*
X146154761Y-73902380D01*
X146345238Y-73902380D01*
X146440476Y-73854761D01*
X146488095Y-73807142D01*
X146535714Y-73711904D01*
X146535714Y-73473809D01*
X146488095Y-73378571D01*
X146440476Y-73330952D01*
X146345238Y-73283333D01*
X146154761Y-73283333D01*
X146059523Y-73330952D01*
X146011904Y-73378571D01*
X145964285Y-73473809D01*
X150933333Y-91752380D02*
X150600000Y-91276190D01*
X150361904Y-91752380D02*
X150361904Y-90752380D01*
X150742857Y-90752380D01*
X150838095Y-90800000D01*
X150885714Y-90847619D01*
X150933333Y-90942857D01*
X150933333Y-91085714D01*
X150885714Y-91180952D01*
X150838095Y-91228571D01*
X150742857Y-91276190D01*
X150361904Y-91276190D01*
X151266666Y-90752380D02*
X151933333Y-90752380D01*
X151504761Y-91752380D01*
X115238095Y-74952380D02*
X115238095Y-75761904D01*
X115285714Y-75857142D01*
X115333333Y-75904761D01*
X115428571Y-75952380D01*
X115619047Y-75952380D01*
X115714285Y-75904761D01*
X115761904Y-75857142D01*
X115809523Y-75761904D01*
X115809523Y-74952380D01*
X116809523Y-75952380D02*
X116238095Y-75952380D01*
X116523809Y-75952380D02*
X116523809Y-74952380D01*
X116428571Y-75095238D01*
X116333333Y-75190476D01*
X116238095Y-75238095D01*
X148738095Y-77652380D02*
X148738095Y-78461904D01*
X148785714Y-78557142D01*
X148833333Y-78604761D01*
X148928571Y-78652380D01*
X149119047Y-78652380D01*
X149214285Y-78604761D01*
X149261904Y-78557142D01*
X149309523Y-78461904D01*
X149309523Y-77652380D01*
X149738095Y-77747619D02*
X149785714Y-77700000D01*
X149880952Y-77652380D01*
X150119047Y-77652380D01*
X150214285Y-77700000D01*
X150261904Y-77747619D01*
X150309523Y-77842857D01*
X150309523Y-77938095D01*
X150261904Y-78080952D01*
X149690476Y-78652380D01*
X150309523Y-78652380D01*
X152136666Y-106032380D02*
X152136666Y-106746666D01*
X152089047Y-106889523D01*
X151993809Y-106984761D01*
X151850952Y-107032380D01*
X151755714Y-107032380D01*
X153041428Y-106365714D02*
X153041428Y-107032380D01*
X152803333Y-105984761D02*
X152565238Y-106699047D01*
X153184285Y-106699047D01*
X119664180Y-113948295D02*
X119664180Y-114667910D01*
X119616205Y-114811832D01*
X119520257Y-114907781D01*
X119376334Y-114955755D01*
X119280385Y-114955755D01*
X120623665Y-113948295D02*
X120143922Y-113948295D01*
X120095948Y-114428038D01*
X120143922Y-114380064D01*
X120239871Y-114332090D01*
X120479742Y-114332090D01*
X120575691Y-114380064D01*
X120623665Y-114428038D01*
X120671640Y-114523987D01*
X120671640Y-114763858D01*
X120623665Y-114859807D01*
X120575691Y-114907781D01*
X120479742Y-114955755D01*
X120239871Y-114955755D01*
X120143922Y-114907781D01*
X120095948Y-114859807D01*
X116822150Y-126207717D02*
X116822150Y-126923025D01*
X116774462Y-127066086D01*
X116679088Y-127161460D01*
X116536027Y-127209147D01*
X116440652Y-127209147D01*
X117203647Y-126207717D02*
X117871267Y-126207717D01*
X117442082Y-127209147D01*
X155882380Y-99803333D02*
X156596666Y-99803333D01*
X156739523Y-99850952D01*
X156834761Y-99946190D01*
X156882380Y-100089047D01*
X156882380Y-100184285D01*
X156310952Y-99184285D02*
X156263333Y-99279523D01*
X156215714Y-99327142D01*
X156120476Y-99374761D01*
X156072857Y-99374761D01*
X155977619Y-99327142D01*
X155930000Y-99279523D01*
X155882380Y-99184285D01*
X155882380Y-98993809D01*
X155930000Y-98898571D01*
X155977619Y-98850952D01*
X156072857Y-98803333D01*
X156120476Y-98803333D01*
X156215714Y-98850952D01*
X156263333Y-98898571D01*
X156310952Y-98993809D01*
X156310952Y-99184285D01*
X156358571Y-99279523D01*
X156406190Y-99327142D01*
X156501428Y-99374761D01*
X156691904Y-99374761D01*
X156787142Y-99327142D01*
X156834761Y-99279523D01*
X156882380Y-99184285D01*
X156882380Y-98993809D01*
X156834761Y-98898571D01*
X156787142Y-98850952D01*
X156691904Y-98803333D01*
X156501428Y-98803333D01*
X156406190Y-98850952D01*
X156358571Y-98898571D01*
X156310952Y-98993809D01*
X80404761Y-127952380D02*
X80071428Y-127476190D01*
X79833333Y-127952380D02*
X79833333Y-126952380D01*
X80214285Y-126952380D01*
X80309523Y-127000000D01*
X80357142Y-127047619D01*
X80404761Y-127142857D01*
X80404761Y-127285714D01*
X80357142Y-127380952D01*
X80309523Y-127428571D01*
X80214285Y-127476190D01*
X79833333Y-127476190D01*
X80690476Y-126952380D02*
X81023809Y-127952380D01*
X81357142Y-126952380D01*
X82214285Y-127952380D02*
X81642857Y-127952380D01*
X81928571Y-127952380D02*
X81928571Y-126952380D01*
X81833333Y-127095238D01*
X81738095Y-127190476D01*
X81642857Y-127238095D01*
X99404761Y-127652380D02*
X99071428Y-127176190D01*
X98833333Y-127652380D02*
X98833333Y-126652380D01*
X99214285Y-126652380D01*
X99309523Y-126700000D01*
X99357142Y-126747619D01*
X99404761Y-126842857D01*
X99404761Y-126985714D01*
X99357142Y-127080952D01*
X99309523Y-127128571D01*
X99214285Y-127176190D01*
X98833333Y-127176190D01*
X99690476Y-126652380D02*
X100023809Y-127652380D01*
X100357142Y-126652380D01*
X100642857Y-126747619D02*
X100690476Y-126700000D01*
X100785714Y-126652380D01*
X101023809Y-126652380D01*
X101119047Y-126700000D01*
X101166666Y-126747619D01*
X101214285Y-126842857D01*
X101214285Y-126938095D01*
X101166666Y-127080952D01*
X100595238Y-127652380D01*
X101214285Y-127652380D01*
X133304761Y-127652380D02*
X132971428Y-127176190D01*
X132733333Y-127652380D02*
X132733333Y-126652380D01*
X133114285Y-126652380D01*
X133209523Y-126700000D01*
X133257142Y-126747619D01*
X133304761Y-126842857D01*
X133304761Y-126985714D01*
X133257142Y-127080952D01*
X133209523Y-127128571D01*
X133114285Y-127176190D01*
X132733333Y-127176190D01*
X133590476Y-126652380D02*
X133923809Y-127652380D01*
X134257142Y-126652380D01*
X134495238Y-126652380D02*
X135114285Y-126652380D01*
X134780952Y-127033333D01*
X134923809Y-127033333D01*
X135019047Y-127080952D01*
X135066666Y-127128571D01*
X135114285Y-127223809D01*
X135114285Y-127461904D01*
X135066666Y-127557142D01*
X135019047Y-127604761D01*
X134923809Y-127652380D01*
X134638095Y-127652380D01*
X134542857Y-127604761D01*
X134495238Y-127557142D01*
X152104761Y-127752380D02*
X151771428Y-127276190D01*
X151533333Y-127752380D02*
X151533333Y-126752380D01*
X151914285Y-126752380D01*
X152009523Y-126800000D01*
X152057142Y-126847619D01*
X152104761Y-126942857D01*
X152104761Y-127085714D01*
X152057142Y-127180952D01*
X152009523Y-127228571D01*
X151914285Y-127276190D01*
X151533333Y-127276190D01*
X152390476Y-126752380D02*
X152723809Y-127752380D01*
X153057142Y-126752380D01*
X153819047Y-127085714D02*
X153819047Y-127752380D01*
X153580952Y-126704761D02*
X153342857Y-127419047D01*
X153961904Y-127419047D01*
D13*
X72200000Y-112066371D02*
X72200000Y-114780000D01*
X71400000Y-113873333D02*
X72200000Y-112806667D01*
X72200000Y-112806667D02*
X73000000Y-113873333D01*
X73000000Y-112806667D02*
X71400000Y-112806667D01*
X73000000Y-113873333D02*
X71400000Y-113873333D01*
X73466371Y-115880000D02*
G75*
G03*
X73466371Y-115880000I-1266371J0D01*
G01*
X76300000Y-128073333D02*
X74700000Y-128073333D01*
X74700000Y-128073333D02*
X75500000Y-127006667D01*
X76300000Y-127006667D02*
X74700000Y-127006667D01*
X75500000Y-126266371D02*
X75500000Y-128980000D01*
X75500000Y-127006667D02*
X76300000Y-128073333D01*
X76766371Y-130080000D02*
G75*
G03*
X76766371Y-130080000I-1266371J0D01*
G01*
X91200000Y-113673333D02*
X92000000Y-112606667D01*
X92000000Y-111866371D02*
X92000000Y-114580000D01*
X92800000Y-112606667D02*
X91200000Y-112606667D01*
X92800000Y-113673333D02*
X91200000Y-113673333D01*
X92000000Y-112606667D02*
X92800000Y-113673333D01*
X93266371Y-115680000D02*
G75*
G03*
X93266371Y-115680000I-1266371J0D01*
G01*
X92200000Y-127073333D02*
X93000000Y-126006667D01*
X93800000Y-126006667D02*
X92200000Y-126006667D01*
X93000000Y-125266371D02*
X93000000Y-127980000D01*
X93800000Y-127073333D02*
X92200000Y-127073333D01*
X93000000Y-126006667D02*
X93800000Y-127073333D01*
X94266371Y-129080000D02*
G75*
G03*
X94266371Y-129080000I-1266371J0D01*
G01*
X149200000Y-113473333D02*
X147600000Y-113473333D01*
X147600000Y-113473333D02*
X148400000Y-112406667D01*
X148400000Y-111666371D02*
X148400000Y-114380000D01*
X148400000Y-112406667D02*
X149200000Y-113473333D01*
X149200000Y-112406667D02*
X147600000Y-112406667D01*
X149666371Y-115480000D02*
G75*
G03*
X149666371Y-115480000I-1266371J0D01*
G01*
X146000000Y-126506667D02*
X146800000Y-127573333D01*
X145200000Y-127573333D02*
X146000000Y-126506667D01*
X146000000Y-125766371D02*
X146000000Y-128480000D01*
X146800000Y-127573333D02*
X145200000Y-127573333D01*
X146800000Y-126506667D02*
X145200000Y-126506667D01*
X147266371Y-129580000D02*
G75*
G03*
X147266371Y-129580000I-1266371J0D01*
G01*
X163500000Y-112506667D02*
X164300000Y-113573333D01*
X164300000Y-112506667D02*
X162700000Y-112506667D01*
X163500000Y-111766371D02*
X163500000Y-114480000D01*
X162700000Y-113573333D02*
X163500000Y-112506667D01*
X164300000Y-113573333D02*
X162700000Y-113573333D01*
X164766371Y-115580000D02*
G75*
G03*
X164766371Y-115580000I-1266371J0D01*
G01*
X164500000Y-126506667D02*
X165300000Y-127573333D01*
X163700000Y-127573333D02*
X164500000Y-126506667D01*
X165300000Y-127573333D02*
X163700000Y-127573333D01*
X165300000Y-126506667D02*
X163700000Y-126506667D01*
X164500000Y-125766371D02*
X164500000Y-128480000D01*
X165766371Y-129580000D02*
G75*
G03*
X165766371Y-129580000I-1266371J0D01*
G01*
X142050000Y-80423333D02*
X140450000Y-80423333D01*
X141250000Y-79356667D02*
X142050000Y-80423333D01*
X141250000Y-78616371D02*
X141250000Y-81330000D01*
X140450000Y-80423333D02*
X141250000Y-79356667D01*
X142050000Y-79356667D02*
X140450000Y-79356667D01*
X142516371Y-82430000D02*
G75*
G03*
X142516371Y-82430000I-1266371J0D01*
G01*
X88500000Y-107480000D02*
X84350000Y-107480000D01*
X88500000Y-117980000D02*
X84500000Y-117980000D01*
X79500000Y-107480000D02*
X79500000Y-117980000D01*
X83500000Y-117980000D02*
X79500000Y-117980000D01*
X82940000Y-104500000D02*
X83800000Y-104500000D01*
X83650000Y-107480000D02*
X79500000Y-107480000D01*
X82940000Y-104500000D02*
X82940000Y-105300000D01*
X88500000Y-107480000D02*
X88500000Y-117980000D01*
X85800000Y-111980000D02*
G75*
G03*
X85800000Y-111980000I-1800000J0D01*
G01*
X107500000Y-118280000D02*
X103500000Y-118280000D01*
X101940000Y-104800000D02*
X101940000Y-105600000D01*
X107500000Y-107780000D02*
X107500000Y-118280000D01*
X107500000Y-107780000D02*
X103350000Y-107780000D01*
X102650000Y-107780000D02*
X98500000Y-107780000D01*
X98500000Y-107780000D02*
X98500000Y-118280000D01*
X101940000Y-104800000D02*
X102800000Y-104800000D01*
X102500000Y-118280000D02*
X98500000Y-118280000D01*
X104800000Y-112280000D02*
G75*
G03*
X104800000Y-112280000I-1800000J0D01*
G01*
X136500000Y-118180000D02*
X132500000Y-118180000D01*
X135940000Y-104700000D02*
X135940000Y-105500000D01*
X136650000Y-107680000D02*
X132500000Y-107680000D01*
X141500000Y-118180000D02*
X137500000Y-118180000D01*
X135940000Y-104700000D02*
X136800000Y-104700000D01*
X132500000Y-107680000D02*
X132500000Y-118180000D01*
X141500000Y-107680000D02*
X137350000Y-107680000D01*
X141500000Y-107680000D02*
X141500000Y-118180000D01*
X138800000Y-112180000D02*
G75*
G03*
X138800000Y-112180000I-1800000J0D01*
G01*
X123170000Y-127330000D02*
X125830000Y-127330000D01*
X123170000Y-127270000D02*
X125830000Y-127270000D01*
X123170000Y-127270000D02*
X123170000Y-127330000D01*
X123170000Y-124670000D02*
X124500000Y-124670000D01*
X125830000Y-127270000D02*
X125830000Y-127330000D01*
X123170000Y-126000000D02*
X123170000Y-124670000D01*
X83900000Y-122310000D02*
X77480000Y-122310000D01*
X83900000Y-119690000D02*
X77480000Y-119690000D01*
X77480000Y-119690000D02*
X77480000Y-120020000D01*
X83900000Y-120020000D02*
X83900000Y-119690000D01*
X83900000Y-121980000D02*
X83900000Y-122310000D01*
X77480000Y-122310000D02*
X77480000Y-121980000D01*
X96980000Y-119690000D02*
X96980000Y-120020000D01*
X103400000Y-120020000D02*
X103400000Y-119690000D01*
X96980000Y-122310000D02*
X96980000Y-121980000D01*
X103400000Y-121980000D02*
X103400000Y-122310000D01*
X103400000Y-122310000D02*
X96980000Y-122310000D01*
X103400000Y-119690000D02*
X96980000Y-119690000D01*
X137100000Y-119690000D02*
X143520000Y-119690000D01*
X143520000Y-122310000D02*
X143520000Y-121980000D01*
X137100000Y-120020000D02*
X137100000Y-119690000D01*
X137100000Y-121980000D02*
X137100000Y-122310000D01*
X143520000Y-119690000D02*
X143520000Y-120020000D01*
X137100000Y-122310000D02*
X143520000Y-122310000D01*
X157100000Y-122310000D02*
X163520000Y-122310000D01*
X157100000Y-119690000D02*
X163520000Y-119690000D01*
X163520000Y-119690000D02*
X163520000Y-120020000D01*
X157100000Y-121980000D02*
X157100000Y-122310000D01*
X157100000Y-120020000D02*
X157100000Y-119690000D01*
X163520000Y-122310000D02*
X163520000Y-121980000D01*
X137080000Y-89990000D02*
X137080000Y-90320000D01*
X143500000Y-89990000D02*
X137080000Y-89990000D01*
X137080000Y-92610000D02*
X137080000Y-92280000D01*
X143500000Y-92610000D02*
X137080000Y-92610000D01*
X143500000Y-90320000D02*
X143500000Y-89990000D01*
X143500000Y-92280000D02*
X143500000Y-92610000D01*
X142700000Y-74810000D02*
X149120000Y-74810000D01*
X142700000Y-72520000D02*
X142700000Y-72190000D01*
X142700000Y-72190000D02*
X149120000Y-72190000D01*
X149120000Y-72190000D02*
X149120000Y-72520000D01*
X149120000Y-74810000D02*
X149120000Y-74480000D01*
X142700000Y-74480000D02*
X142700000Y-74810000D01*
X147700000Y-90320000D02*
X147700000Y-89990000D01*
X147700000Y-92280000D02*
X147700000Y-92610000D01*
X154120000Y-92610000D02*
X154120000Y-92280000D01*
X154120000Y-89990000D02*
X154120000Y-90320000D01*
X147700000Y-89990000D02*
X154120000Y-89990000D01*
X147700000Y-92610000D02*
X154120000Y-92610000D01*
X113560000Y-73670000D02*
X113560000Y-94110000D01*
X118060000Y-73670000D02*
X116810000Y-73670000D01*
X118060000Y-94110000D02*
X118060000Y-73670000D01*
X114810000Y-73670000D02*
X113560000Y-73670000D01*
X113560000Y-94110000D02*
X118060000Y-94110000D01*
X114810000Y-73670000D02*
G75*
G03*
X116810000Y-73670000I1000000J0D01*
G01*
X151860000Y-76320000D02*
X150610000Y-76320000D01*
X151860000Y-86600000D02*
X151860000Y-76320000D01*
X147360000Y-86600000D02*
X151860000Y-86600000D01*
X148610000Y-76320000D02*
X147360000Y-76320000D01*
X147360000Y-76320000D02*
X147360000Y-86600000D01*
X148610000Y-76320000D02*
G75*
G03*
X150610000Y-76320000I1000000J0D01*
G01*
X155440000Y-104500000D02*
X155440000Y-105300000D01*
X161000000Y-107480000D02*
X156850000Y-107480000D01*
X156150000Y-107480000D02*
X152000000Y-107480000D01*
X161000000Y-107480000D02*
X161000000Y-117980000D01*
X156000000Y-117980000D02*
X152000000Y-117980000D01*
X152000000Y-107480000D02*
X152000000Y-117980000D01*
X155440000Y-104500000D02*
X156300000Y-104500000D01*
X161000000Y-117980000D02*
X157000000Y-117980000D01*
X158300000Y-111980000D02*
G75*
G03*
X158300000Y-111980000I-1800000J0D01*
G01*
D11*
X111181000Y-115000000D02*
G75*
G03*
X111181000Y-115000000I-100000J0D01*
G01*
D14*
X128000000Y-115000000D02*
G75*
G03*
X128000000Y-115000000I-8000000J0D01*
G01*
X125350000Y-136135000D02*
X123884000Y-136135000D01*
X116116000Y-129865000D02*
X114650000Y-129865000D01*
X116116000Y-136135000D02*
X114650000Y-136135000D01*
X125350000Y-129865000D02*
X123884000Y-129865000D01*
X114650000Y-134765000D02*
X114650000Y-136135000D01*
X125350000Y-129865000D02*
X125350000Y-131235000D01*
X114650000Y-129865000D02*
X114650000Y-131235000D01*
X125350000Y-134765000D02*
X125350000Y-136135000D01*
X116116000Y-136135000D02*
G75*
G03*
X123882076Y-136137372I3884000J3148850D01*
G01*
X123884000Y-129865000D02*
G75*
G03*
X116117924Y-129862628I-3884000J-3148850D01*
G01*
D15*
X112800000Y-133000000D02*
G75*
G03*
X112800000Y-133000000I-200000J0D01*
G01*
D13*
X155430000Y-96870000D02*
X155430000Y-98200000D01*
X154100000Y-96870000D02*
X155430000Y-96870000D01*
X155430000Y-102070000D02*
X104510000Y-102070000D01*
X152830000Y-99470000D02*
X155430000Y-99470000D01*
X104510000Y-96870000D02*
X104510000Y-102070000D01*
X152830000Y-96870000D02*
X104510000Y-96870000D01*
X155430000Y-99470000D02*
X155430000Y-102070000D01*
X152830000Y-96870000D02*
X152830000Y-99470000D01*
X79040000Y-125940000D02*
X79040000Y-129806000D01*
X88961000Y-138060000D02*
X79040000Y-138060000D01*
X85675000Y-125940000D02*
X84825000Y-125940000D01*
X80675000Y-125940000D02*
X79040000Y-125940000D01*
X88961000Y-134195000D02*
X88961000Y-138060000D01*
X83175000Y-125940000D02*
X82325000Y-125940000D01*
X79040000Y-134195000D02*
X79040000Y-138060000D01*
X88961000Y-125940000D02*
X87325000Y-125940000D01*
X88961000Y-125940000D02*
X88961000Y-129806000D01*
X81238000Y-133673000D02*
G75*
G03*
X86762432Y-133671982I2762000J1173000D01*
G01*
X86298000Y-130572000D02*
G75*
G03*
X81702247Y-130571705I-2298000J-1928000D01*
G01*
X99675000Y-125640000D02*
X98040000Y-125640000D01*
X98040000Y-133895000D02*
X98040000Y-137760000D01*
X107961000Y-133895000D02*
X107961000Y-137760000D01*
X107961000Y-125640000D02*
X107961000Y-129506000D01*
X104675000Y-125640000D02*
X103825000Y-125640000D01*
X98040000Y-125640000D02*
X98040000Y-129506000D01*
X102175000Y-125640000D02*
X101325000Y-125640000D01*
X107961000Y-137760000D02*
X98040000Y-137760000D01*
X107961000Y-125640000D02*
X106325000Y-125640000D01*
X105298000Y-130272000D02*
G75*
G03*
X100702247Y-130271705I-2298000J-1928000D01*
G01*
X100238000Y-133373000D02*
G75*
G03*
X105762432Y-133371982I2762000J1173000D01*
G01*
X138575000Y-125640000D02*
X137725000Y-125640000D01*
X131940000Y-133895000D02*
X131940000Y-137760000D01*
X141861000Y-137760000D02*
X131940000Y-137760000D01*
X141861000Y-133895000D02*
X141861000Y-137760000D01*
X141861000Y-125640000D02*
X140225000Y-125640000D01*
X133575000Y-125640000D02*
X131940000Y-125640000D01*
X136075000Y-125640000D02*
X135225000Y-125640000D01*
X131940000Y-125640000D02*
X131940000Y-129506000D01*
X141861000Y-125640000D02*
X141861000Y-129506000D01*
X134138000Y-133373000D02*
G75*
G03*
X139662432Y-133371982I2762000J1173000D01*
G01*
X139198000Y-130272000D02*
G75*
G03*
X134602247Y-130271705I-2298000J-1928000D01*
G01*
X160661000Y-137860000D02*
X150740000Y-137860000D01*
X152375000Y-125740000D02*
X150740000Y-125740000D01*
X160661000Y-125740000D02*
X159025000Y-125740000D01*
X154875000Y-125740000D02*
X154025000Y-125740000D01*
X157375000Y-125740000D02*
X156525000Y-125740000D01*
X150740000Y-133995000D02*
X150740000Y-137860000D01*
X160661000Y-125740000D02*
X160661000Y-129606000D01*
X150740000Y-125740000D02*
X150740000Y-129606000D01*
X160661000Y-133995000D02*
X160661000Y-137860000D01*
X152938000Y-133473000D02*
G75*
G03*
X158462432Y-133471982I2762000J1173000D01*
G01*
X157998000Y-130372000D02*
G75*
G03*
X153402247Y-130371705I-2298000J-1928000D01*
G01*
M02*
