M48
; DRILL file {KiCad 6.0.7} date Thu 27 Oct 2022 17:53:40
; FORMAT={-:-/ absolute / metric / decimal}
; #@! TF.CreationDate,2022-10-27T17:53:40+13:00
; #@! TF.GenerationSoftware,Kicad,Pcbnew,6.0.7
; #@! TF.FileFunction,Plated,1,2,PTH
FMAT,2
METRIC
; #@! TA.AperFunction,Plated,PTH,ViaDrill
T1C0.400
; #@! TA.AperFunction,Plated,PTH,ComponentDrill
T2C0.800
; #@! TA.AperFunction,Plated,PTH,ComponentDrill
T3C1.000
; #@! TA.AperFunction,Plated,PTH,ComponentDrill
T4C1.220
; #@! TA.AperFunction,Plated,PTH,ComponentDrill
T5C1.400
; #@! TA.AperFunction,Plated,PTH,ComponentDrill
T6C1.420
; #@! TA.AperFunction,Plated,PTH,ComponentDrill
T7C1.430
; #@! TA.AperFunction,Plated,PTH,ComponentDrill
T8C1.700
; #@! TA.AperFunction,Plated,PTH,ComponentDrill
T9C2.000
%
G90
G05
T1
X87.7Y-108.1
X89.2Y-109.1
X92.7Y-102.1
X94.1Y-102.0
T2
X72.2Y-110.8
X72.2Y-115.88
X75.5Y-125.0
X75.5Y-130.08
X76.88Y-121.0
X84.5Y-121.0
X92.0Y-110.6
X92.0Y-115.68
X93.0Y-124.0
X93.0Y-129.08
X96.38Y-121.0
X104.0Y-121.0
X112.0Y-75.0
X112.0Y-77.54
X112.0Y-80.08
X112.0Y-82.62
X112.0Y-85.16
X112.0Y-87.7
X112.0Y-90.24
X112.0Y-92.78
X119.62Y-75.0
X119.62Y-77.54
X119.62Y-80.08
X119.62Y-82.62
X119.62Y-85.16
X119.62Y-87.7
X119.62Y-90.24
X119.62Y-92.78
X136.48Y-91.3
X136.5Y-121.0
X141.25Y-77.35
X141.25Y-82.43
X142.1Y-73.5
X144.1Y-91.3
X144.12Y-121.0
X145.8Y-77.65
X145.8Y-80.19
X145.8Y-82.73
X145.8Y-85.27
X146.0Y-124.5
X146.0Y-129.58
X147.1Y-91.3
X148.4Y-110.4
X148.4Y-115.48
X149.72Y-73.5
X153.42Y-77.65
X153.42Y-80.19
X153.42Y-82.73
X153.42Y-85.27
X154.72Y-91.3
X156.5Y-121.0
X163.5Y-110.5
X163.5Y-115.58
X164.12Y-121.0
X164.5Y-124.5
X164.5Y-129.58
T3
X81.5Y-125.0
X84.0Y-125.0
X86.5Y-125.0
X100.5Y-124.7
X103.0Y-124.7
X105.5Y-124.7
X105.84Y-98.2
X105.84Y-100.74
X108.38Y-98.2
X108.38Y-100.74
X110.92Y-98.2
X110.92Y-100.74
X113.46Y-98.2
X113.46Y-100.74
X116.0Y-98.2
X116.0Y-100.74
X118.54Y-98.2
X118.54Y-100.74
X121.08Y-98.2
X121.08Y-100.74
X123.62Y-98.2
X123.62Y-100.74
X124.5Y-126.0
X126.16Y-98.2
X126.16Y-100.74
X128.7Y-98.2
X128.7Y-100.74
X131.24Y-98.2
X131.24Y-100.74
X133.78Y-98.2
X133.78Y-100.74
X134.4Y-124.7
X136.32Y-98.2
X136.32Y-100.74
X136.9Y-124.7
X138.86Y-98.2
X138.86Y-100.74
X139.4Y-124.7
X141.4Y-98.2
X141.4Y-100.74
X143.94Y-98.2
X143.94Y-100.74
X146.48Y-98.2
X146.48Y-100.74
X149.02Y-98.2
X149.02Y-100.74
X151.56Y-98.2
X151.56Y-100.74
X153.2Y-124.8
X154.1Y-98.2
X154.1Y-100.74
X155.7Y-124.8
X158.2Y-124.8
T4
X84.0Y-105.5
X103.0Y-105.8
X137.0Y-105.7
X156.5Y-105.5
T5
X114.5Y-115.0
X116.11Y-111.11
X120.0Y-109.5
X120.0Y-119.5
X123.89Y-111.11
X125.5Y-115.0
T6
X84.0Y-108.6
X103.0Y-108.9
X137.0Y-108.8
X156.5Y-108.6
T7
X84.0Y-116.9
X103.0Y-117.2
X137.0Y-117.1
X156.5Y-116.9
T8
X120.0Y-131.4
T9
X114.85Y-133.0
X125.15Y-133.0
T0
M30
