G04 #@! TF.GenerationSoftware,KiCad,Pcbnew,6.0.7*
G04 #@! TF.CreationDate,2022-10-27T17:53:38+13:00*
G04 #@! TF.ProjectId,i_n_c_u_r,695f6e5f-635f-4755-9f72-2e6b69636164,rev?*
G04 #@! TF.SameCoordinates,Original*
G04 #@! TF.FileFunction,Soldermask,Top*
G04 #@! TF.FilePolarity,Negative*
%FSLAX46Y46*%
G04 Gerber Fmt 4.6, Leading zero omitted, Abs format (unit mm)*
G04 Created by KiCad (PCBNEW 6.0.7) date 2022-10-27 17:53:38*
%MOMM*%
%LPD*%
G01*
G04 APERTURE LIST*
G04 Aperture macros list*
%AMRoundRect*
0 Rectangle with rounded corners*
0 $1 Rounding radius*
0 $2 $3 $4 $5 $6 $7 $8 $9 X,Y pos of 4 corners*
0 Add a 4 corners polygon primitive as box body*
4,1,4,$2,$3,$4,$5,$6,$7,$8,$9,$2,$3,0*
0 Add four circle primitives for the rounded corners*
1,1,$1+$1,$2,$3*
1,1,$1+$1,$4,$5*
1,1,$1+$1,$6,$7*
1,1,$1+$1,$8,$9*
0 Add four rect primitives between the rounded corners*
20,1,$1+$1,$2,$3,$4,$5,0*
20,1,$1+$1,$4,$5,$6,$7,0*
20,1,$1+$1,$6,$7,$8,$9,0*
20,1,$1+$1,$8,$9,$2,$3,0*%
G04 Aperture macros list end*
%ADD10RoundRect,0.200000X-0.800000X0.800000X-0.800000X-0.800000X0.800000X-0.800000X0.800000X0.800000X0*%
%ADD11O,2.000000X2.000000*%
%ADD12RoundRect,0.200000X0.965000X0.915000X-0.965000X0.915000X-0.965000X-0.915000X0.965000X-0.915000X0*%
%ADD13C,2.530000*%
%ADD14RoundRect,0.200000X-0.850000X-0.850000X0.850000X-0.850000X0.850000X0.850000X-0.850000X0.850000X0*%
%ADD15C,2.000000*%
%ADD16RoundRect,0.200000X-1.200000X-0.800000X1.200000X-0.800000X1.200000X0.800000X-1.200000X0.800000X0*%
%ADD17O,2.800000X2.000000*%
%ADD18C,3.600000*%
%ADD19RoundRect,0.200000X-1.050000X1.050000X-1.050000X-1.050000X1.050000X-1.050000X1.050000X1.050000X0*%
%ADD20C,2.500000*%
%ADD21C,2.950000*%
%ADD22C,3.400000*%
%ADD23RoundRect,0.200000X-0.850000X0.850000X-0.850000X-0.850000X0.850000X-0.850000X0.850000X0.850000X0*%
%ADD24O,2.100000X2.100000*%
%ADD25C,4.400000*%
%ADD26C,2.200000*%
G04 APERTURE END LIST*
D10*
X72200000Y-110800000D03*
D11*
X72200000Y-115880000D03*
D10*
X75500000Y-125000000D03*
D11*
X75500000Y-130080000D03*
D10*
X92000000Y-110600000D03*
D11*
X92000000Y-115680000D03*
D10*
X93000000Y-124000000D03*
D11*
X93000000Y-129080000D03*
D10*
X148400000Y-110400000D03*
D11*
X148400000Y-115480000D03*
D10*
X146000000Y-124500000D03*
D11*
X146000000Y-129580000D03*
D10*
X163500000Y-110500000D03*
D11*
X163500000Y-115580000D03*
D10*
X164500000Y-124500000D03*
D11*
X164500000Y-129580000D03*
D10*
X141250000Y-77350000D03*
D11*
X141250000Y-82430000D03*
D12*
X84000000Y-105500000D03*
D13*
X84000000Y-116900000D03*
X84000000Y-108600000D03*
D12*
X103000000Y-105800000D03*
D13*
X103000000Y-117200000D03*
X103000000Y-108900000D03*
D12*
X137000000Y-105700000D03*
D13*
X137000000Y-117100000D03*
X137000000Y-108800000D03*
D14*
X124500000Y-126000000D03*
D15*
X84500000Y-121000000D03*
D11*
X76880000Y-121000000D03*
D15*
X104000000Y-121000000D03*
D11*
X96380000Y-121000000D03*
D15*
X136500000Y-121000000D03*
D11*
X144120000Y-121000000D03*
D15*
X156500000Y-121000000D03*
D11*
X164120000Y-121000000D03*
D15*
X144100000Y-91300000D03*
D11*
X136480000Y-91300000D03*
D15*
X142100000Y-73500000D03*
D11*
X149720000Y-73500000D03*
D15*
X147100000Y-91300000D03*
D11*
X154720000Y-91300000D03*
D16*
X112000000Y-75000000D03*
D17*
X112000000Y-77540000D03*
X112000000Y-80080000D03*
X112000000Y-82620000D03*
X112000000Y-85160000D03*
X112000000Y-87700000D03*
X112000000Y-90240000D03*
X112000000Y-92780000D03*
X119620000Y-92780000D03*
X119620000Y-90240000D03*
X119620000Y-87700000D03*
X119620000Y-85160000D03*
X119620000Y-82620000D03*
X119620000Y-80080000D03*
X119620000Y-77540000D03*
X119620000Y-75000000D03*
D16*
X145800000Y-77650000D03*
D17*
X145800000Y-80190000D03*
X145800000Y-82730000D03*
X145800000Y-85270000D03*
X153420000Y-85270000D03*
X153420000Y-82730000D03*
X153420000Y-80190000D03*
X153420000Y-77650000D03*
D18*
X159000000Y-50500000D03*
X159000000Y-99500000D03*
X101000000Y-99500000D03*
X101000000Y-50500000D03*
X73500000Y-43500000D03*
X166500000Y-43500000D03*
X73500000Y-136500000D03*
X166200000Y-136100000D03*
D12*
X156500000Y-105500000D03*
D13*
X156500000Y-116900000D03*
X156500000Y-108600000D03*
D19*
X114500000Y-115000000D03*
D20*
X120000000Y-109500000D03*
X125500000Y-115000000D03*
X116110000Y-111110000D03*
X123890000Y-111110000D03*
X120000000Y-119500000D03*
D21*
X120000000Y-131400000D03*
D22*
X125150000Y-133000000D03*
X114850000Y-133000000D03*
D23*
X154100000Y-98200000D03*
D24*
X154100000Y-100740000D03*
X151560000Y-98200000D03*
X151560000Y-100740000D03*
X149020000Y-98200000D03*
X149020000Y-100740000D03*
X146480000Y-98200000D03*
X146480000Y-100740000D03*
X143940000Y-98200000D03*
X143940000Y-100740000D03*
X141400000Y-98200000D03*
X141400000Y-100740000D03*
X138860000Y-98200000D03*
X138860000Y-100740000D03*
X136320000Y-98200000D03*
X136320000Y-100740000D03*
X133780000Y-98200000D03*
X133780000Y-100740000D03*
X131240000Y-98200000D03*
X131240000Y-100740000D03*
X128700000Y-98200000D03*
X128700000Y-100740000D03*
X126160000Y-98200000D03*
X126160000Y-100740000D03*
X123620000Y-98200000D03*
X123620000Y-100740000D03*
X121080000Y-98200000D03*
X121080000Y-100740000D03*
X118540000Y-98200000D03*
X118540000Y-100740000D03*
X116000000Y-98200000D03*
X116000000Y-100740000D03*
X113460000Y-98200000D03*
X113460000Y-100740000D03*
X110920000Y-98200000D03*
X110920000Y-100740000D03*
X108380000Y-98200000D03*
X108380000Y-100740000D03*
X105840000Y-98200000D03*
X105840000Y-100740000D03*
D25*
X88400000Y-132000000D03*
X79600000Y-132000000D03*
D26*
X81500000Y-125000000D03*
X84000000Y-125000000D03*
X86500000Y-125000000D03*
D25*
X107400000Y-131700000D03*
X98600000Y-131700000D03*
D26*
X100500000Y-124700000D03*
X103000000Y-124700000D03*
X105500000Y-124700000D03*
D25*
X141300000Y-131700000D03*
X132500000Y-131700000D03*
D26*
X134400000Y-124700000D03*
X136900000Y-124700000D03*
X139400000Y-124700000D03*
D25*
X151300000Y-131800000D03*
X160100000Y-131800000D03*
D26*
X153200000Y-124800000D03*
X155700000Y-124800000D03*
X158200000Y-124800000D03*
M02*
