<?xml version="1.0" standalone="no"?>
 <!DOCTYPE svg PUBLIC "-//W3C//DTD SVG 1.1//EN" 
 "http://www.w3.org/Graphics/SVG/1.1/DTD/svg11.dtd"> 
<svg
  xmlns:svg="http://www.w3.org/2000/svg"
  xmlns="http://www.w3.org/2000/svg"
  xmlns:xlink="http://www.w3.org/1999/xlink"
  version="1.1"
  width="10.012680cm" height="10.012680cm" viewBox="0 0 100126800 100126800">
<title>SVG Picture created as i_n_c_u_r-F_Silkscreen.svg date 2023/07/12 16:38:07 </title>
  <desc>Picture generated by PCBNEW </desc>
<g style="fill:#000000; fill-opacity:1.000000;stroke:#000000; stroke-opacity:1.000000;
stroke-linecap:round; stroke-linejoin:round;"
 transform="translate(0 0) scale(1 1)">
</g>
<g style="fill:#000000; fill-opacity:0.0; 
stroke:#000000; stroke-width:0.000000; stroke-opacity:1; 
stroke-linecap:round; stroke-linejoin:round;">
</g>
<g style="fill:#000000; fill-opacity:0.0; 
stroke:#000000; stroke-width:350000.000000; stroke-opacity:1; 
stroke-linecap:round; stroke-linejoin:round;">
<text x="50675000.000000" y="4175000.000000"
textLength="37151905.000000" font-size="2666666.000000" lengthAdjust="spacingAndGlyphs"
text-anchor="middle" opacity="0">R_E_C_U_R + I_N_C_U_R</text>
<g class="stroked-text"><desc>R_E_C_U_R + I_N_C_U_R</desc>
<path d="M33913095 4079761
L33246428 3127380
" />
<path d="M32770238 4079761
L32770238 2079761
L33532142 2079761
L33722619 2175000
L33817857 2270238
L33913095 2460714
L33913095 2746428
L33817857 2936904
L33722619 3032142
L33532142 3127380
L32770238 3127380
" />
<path d="M34294047 4270238
L35817857 4270238
" />
<path d="M36294047 3032142
L36960714 3032142
" />
<path d="M37246428 4079761
L36294047 4079761
L36294047 2079761
L37246428 2079761
" />
<path d="M37627380 4270238
L39151190 4270238
" />
<path d="M40770238 3889285
L40675000 3984523
L40389285 4079761
L40198809 4079761
L39913095 3984523
L39722619 3794047
L39627380 3603571
L39532142 3222619
L39532142 2936904
L39627380 2555952
L39722619 2365476
L39913095 2175000
L40198809 2079761
L40389285 2079761
L40675000 2175000
L40770238 2270238
" />
<path d="M41151190 4270238
L42675000 4270238
" />
<path d="M43151190 2079761
L43151190 3698809
L43246428 3889285
L43341666 3984523
L43532142 4079761
L43913095 4079761
L44103571 3984523
L44198809 3889285
L44294047 3698809
L44294047 2079761
" />
<path d="M44770238 4270238
L46294047 4270238
" />
<path d="M47913095 4079761
L47246428 3127380
" />
<path d="M46770238 4079761
L46770238 2079761
L47532142 2079761
L47722619 2175000
L47817857 2270238
L47913095 2460714
L47913095 2746428
L47817857 2936904
L47722619 3032142
L47532142 3127380
L46770238 3127380
" />
<path d="M50294047 3317857
L51817857 3317857
" />
<path d="M51055952 4079761
L51055952 2555952
" />
<path d="M54294047 4079761
L54294047 2079761
" />
<path d="M54770238 4270238
L56294047 4270238
" />
<path d="M56770238 4079761
L56770238 2079761
L57913095 4079761
L57913095 2079761
" />
<path d="M58389285 4270238
L59913095 4270238
" />
<path d="M61532142 3889285
L61436904 3984523
L61151190 4079761
L60960714 4079761
L60674999 3984523
L60484523 3794047
L60389285 3603571
L60294047 3222619
L60294047 2936904
L60389285 2555952
L60484523 2365476
L60674999 2175000
L60960714 2079761
L61151190 2079761
L61436904 2175000
L61532142 2270238
" />
<path d="M61913095 4270238
L63436904 4270238
" />
<path d="M63913095 2079761
L63913095 3698809
L64008333 3889285
L64103571 3984523
L64294047 4079761
L64675000 4079761
L64865476 3984523
L64960714 3889285
L65055952 3698809
L65055952 2079761
" />
<path d="M65532142 4270238
L67055952 4270238
" />
<path d="M68675000 4079761
L68008333 3127380
" />
<path d="M67532142 4079761
L67532142 2079761
L68294047 2079761
L68484523 2175000
L68579761 2270238
L68675000 2460714
L68675000 2746428
L68579761 2936904
L68484523 3032142
L68294047 3127380
L67532142 3127380
" />
</g><g >
</g>
<g >
</g>
<g >
</g>
</g> 
</svg>
