  0
SECTION
  2
HEADER
  9
$ACADVER
  1
AC1014
  9
$HANDSEED
  5
FFFF
  9
$INSUNITS
 70
     5
  9
$MEASUREMENT
 70
     1
  0
ENDSEC
  0
SECTION
  2
TABLES
  0
TABLE
  2
VPORT
  5
8
330
0
100
AcDbSymbolTable
 70
     4
  0
VPORT
  5
2E
330
8
100
AcDbSymbolTableRecord
100
AcDbViewportTableRecord
  2
*ACTIVE
 70
     0
 10
0.0
 20
0.0
 11
1.0
 21
1.0
 12
210.0
 22
148.5
 13
0.0
 23
0.0
 14
10.0
 24
10.0
 15
10.0
 25
10.0
 16
0.0
 26
0.0
 36
1.0
 17
0.0
 27
0.0
 37
0.0
 40
341.0
 41
1.24
 42
50.0
 43
0.0
 44
0.0
 50
0.0
 51
0.0
 71
     0
 72
   100
 73
     1
 74
     3
 75
     0
 76
     0
 77
     0
 78
     0
  0
ENDTAB
  0
TABLE
  2
LTYPE
  5
5
330
0
100
AcDbSymbolTable
 70
     1
  0
LTYPE
  5
14
330
5
100
AcDbSymbolTableRecord
100
AcDbLinetypeTableRecord
  2
BYBLOCK
 70
     0
  3

 72
    65
 73
     0
 40
0.0
  0
LTYPE
  5
15
330
5
100
AcDbSymbolTableRecord
100
AcDbLinetypeTableRecord
  2
BYLAYER
 70
     0
  3

 72
    65
 73
     0
 40
0.0
  0
LTYPE
  5
16
330
5
100
AcDbSymbolTableRecord
100
AcDbLinetypeTableRecord
  2
CONTINUOUS
 70
     0
  3
Solid line
 72
    65
 73
     0
 40
0.0
  0
ENDTAB
  0
TABLE
  2
LAYER
  5
2
100
AcDbSymbolTable
 70
1
  0
LAYER
  5
50
100
AcDbSymbolTableRecord
100
AcDbLayerTableRecord
  2
0
 70
0
  6
CONTINUOUS
  0
ENDTAB
  0
TABLE
  2
STYLE
  5
3
330
0
100
AcDbSymbolTable
 70
     1
  0
STYLE
  5
11
330
3
100
AcDbSymbolTableRecord
100
AcDbTextStyleTableRecord
  2
STANDARD
 70
     0
 40
0.0
 41
1.0
 50
0.0
 71
     0
 42
2.5
  3
txt
  4

  0
ENDTAB
  0
TABLE
  2
VIEW
  5
6
330
0
100
AcDbSymbolTable
 70
     0
  0
ENDTAB
  0
TABLE
  2
UCS
  5
7
330
0
100
AcDbSymbolTable
 70
     0
  0
ENDTAB
  0
TABLE
  2
APPID
  5
9
330
0
100
AcDbSymbolTable
 70
     2
  0
APPID
  5
12
330
9
100
AcDbSymbolTableRecord
100
AcDbRegAppTableRecord
  2
ACAD
 70
     0
  0
ENDTAB
  0
TABLE
  2
DIMSTYLE
  5
A
330
0
100
AcDbSymbolTable
 70
     1
  0
DIMSTYLE
105
27
330
A
100
AcDbSymbolTableRecord
100
AcDbDimStyleTableRecord
  2
ISO-25
 70
     0
  3

  4

  5

  6

  7

 40
1.0
 41
2.5
 42
0.625
 43
3.75
 44
1.25
 45
0.0
 46
0.0
 47
0.0
 48
0.0
140
2.5
141
2.5
142
0.0
143
0.03937007874016
144
1.0
145
0.0
146
1.0
147
0.625
 71
     0
 72
     0
 73
     0
 74
     0
 75
     0
 76
     0
 77
     1
 78
     8
170
     0
171
     3
172
     1
173
     0
174
     0
175
     0
176
     0
177
     0
178
     0
270
     2
271
     2
272
     2
273
     2
274
     3
340
11
275
     0
280
     0
281
     0
282
     0
283
     0
284
     8
285
     0
286
     0
287
     3
288
     0
  0
ENDTAB
  0
TABLE
  2
BLOCK_RECORD
  5
1
330
0
100
AcDbSymbolTable
 70
     1
  0
BLOCK_RECORD
  5
1F
330
1
100
AcDbSymbolTableRecord
100
AcDbBlockTableRecord
  2
*MODEL_SPACE
  0
BLOCK_RECORD
  5
1B
330
1
100
AcDbSymbolTableRecord
100
AcDbBlockTableRecord
  2
*PAPER_SPACE
  0
ENDTAB
  0
ENDSEC
  0
SECTION
  2
BLOCKS
  0
BLOCK
  5
20
330
1F
100
AcDbEntity
  8
0
100
AcDbBlockBegin
  2
*MODEL_SPACE
 70
     0
 10
0.0
 20
0.0
 30
0.0
  3
*MODEL_SPACE
  1

  0
ENDBLK
  5
21
330
1F
100
AcDbEntity
  8
0
100
AcDbBlockEnd
  0
BLOCK
  5
1C
330
1B
100
AcDbEntity
 67
     1
  8
0
100
AcDbBlockBegin
  2
*PAPER_SPACE
  1

  0
ENDBLK
  5
1D
330
1B
100
AcDbEntity
 67
     1
  8
0
100
AcDbBlockEnd
  0
ENDSEC
  0
SECTION
  2
ENTITIES
  0
SPLINE
  5
100
100
AcDbEntity
  8
0
 62
7
100
AcDbSpline
 70
8
 71
3
 72
8
 73
4
 74
0
 40
0
 40
0
 40
0
 40
0
 40
1
 40
1
 40
1
 40
1
 10
0.357500
 20
0.555180
 30
0.0
 10
0.276608
 20
0.555180
 30
0.0
 10
0.203680
 20
0.506452
 30
0.0
 10
0.172724
 20
0.431717
 30
0.0
  0
SPLINE
  5
101
100
AcDbEntity
  8
0
 62
7
100
AcDbSpline
 70
8
 71
3
 72
8
 73
4
 74
0
 40
0
 40
0
 40
0
 40
0
 40
1
 40
1
 40
1
 40
1
 10
0.172724
 20
0.431717
 30
0.0
 10
0.141768
 20
0.356982
 30
0.0
 10
0.158879
 20
0.270958
 30
0.0
 10
0.216079
 20
0.213759
 30
0.0
  0
SPLINE
  5
102
100
AcDbEntity
  8
0
 62
7
100
AcDbSpline
 70
8
 71
3
 72
8
 73
4
 74
0
 40
0
 40
0
 40
0
 40
0
 40
1
 40
1
 40
1
 40
1
 10
0.216079
 20
0.213759
 30
0.0
 10
0.273278
 20
0.156559
 30
0.0
 10
0.359302
 20
0.139448
 30
0.0
 10
0.434037
 20
0.170404
 30
0.0
  0
SPLINE
  5
103
100
AcDbEntity
  8
0
 62
7
100
AcDbSpline
 70
8
 71
3
 72
8
 73
4
 74
0
 40
0
 40
0
 40
0
 40
0
 40
1
 40
1
 40
1
 40
1
 10
0.434037
 20
0.170404
 30
0.0
 10
0.508772
 20
0.201360
 30
0.0
 10
0.557500
 20
0.274288
 30
0.0
 10
0.557500
 20
0.355180
 30
0.0
  0
SPLINE
  5
104
100
AcDbEntity
  8
0
 62
7
100
AcDbSpline
 70
8
 71
3
 72
8
 73
4
 74
0
 40
0
 40
0
 40
0
 40
0
 40
1
 40
1
 40
1
 40
1
 10
0.557500
 20
0.355180
 30
0.0
 10
0.557500
 20
0.408223
 30
0.0
 10
0.536429
 20
0.459094
 30
0.0
 10
0.498921
 20
0.496601
 30
0.0
  0
SPLINE
  5
105
100
AcDbEntity
  8
0
 62
7
100
AcDbSpline
 70
8
 71
3
 72
8
 73
4
 74
0
 40
0
 40
0
 40
0
 40
0
 40
1
 40
1
 40
1
 40
1
 10
0.498921
 20
0.496601
 30
0.0
 10
0.461414
 20
0.534109
 30
0.0
 10
0.410543
 20
0.555180
 30
0.0
 10
0.357500
 20
0.555180
 30
0.0
  0
SPLINE
  5
106
100
AcDbEntity
  8
0
 62
7
100
AcDbSpline
 70
8
 71
3
 72
8
 73
4
 74
0
 40
0
 40
0
 40
0
 40
0
 40
1
 40
1
 40
1
 40
1
 10
5.007500
 20
3.410180
 30
0.0
 10
4.643484
 20
3.410180
 30
0.0
 10
4.315311
 20
3.190902
 30
0.0
 10
4.176008
 20
2.854595
 30
0.0
  0
SPLINE
  5
107
100
AcDbEntity
  8
0
 62
7
100
AcDbSpline
 70
8
 71
3
 72
8
 73
4
 74
0
 40
0
 40
0
 40
0
 40
0
 40
1
 40
1
 40
1
 40
1
 10
4.176008
 20
2.854595
 30
0.0
 10
4.036706
 20
2.518288
 30
0.0
 10
4.113706
 20
2.131182
 30
0.0
 10
4.371104
 20
1.873784
 30
0.0
  0
SPLINE
  5
108
100
AcDbEntity
  8
0
 62
7
100
AcDbSpline
 70
8
 71
3
 72
8
 73
4
 74
0
 40
0
 40
0
 40
0
 40
0
 40
1
 40
1
 40
1
 40
1
 10
4.371104
 20
1.873784
 30
0.0
 10
4.628502
 20
1.616386
 30
0.0
 10
5.015608
 20
1.539386
 30
0.0
 10
5.351915
 20
1.678688
 30
0.0
  0
SPLINE
  5
109
100
AcDbEntity
  8
0
 62
7
100
AcDbSpline
 70
8
 71
3
 72
8
 73
4
 74
0
 40
0
 40
0
 40
0
 40
0
 40
1
 40
1
 40
1
 40
1
 10
5.351915
 20
1.678688
 30
0.0
 10
5.688222
 20
1.817991
 30
0.0
 10
5.907500
 20
2.146164
 30
0.0
 10
5.907500
 20
2.510180
 30
0.0
  0
SPLINE
  5
10a
100
AcDbEntity
  8
0
 62
7
100
AcDbSpline
 70
8
 71
3
 72
8
 73
4
 74
0
 40
0
 40
0
 40
0
 40
0
 40
1
 40
1
 40
1
 40
1
 10
5.907500
 20
2.510180
 30
0.0
 10
5.907500
 20
2.748875
 30
0.0
 10
5.812679
 20
2.977793
 30
0.0
 10
5.643896
 20
3.146576
 30
0.0
  0
SPLINE
  5
10b
100
AcDbEntity
  8
0
 62
7
100
AcDbSpline
 70
8
 71
3
 72
8
 73
4
 74
0
 40
0
 40
0
 40
0
 40
0
 40
1
 40
1
 40
1
 40
1
 10
5.643896
 20
3.146576
 30
0.0
 10
5.475113
 20
3.315359
 30
0.0
 10
5.246195
 20
3.410180
 30
0.0
 10
5.007500
 20
3.410180
 30
0.0
  0
LWPOLYLINE
  5
10c
100
AcDbEntity
  8
0
 62
7
100
AcDbPolyline
 90
1
 70
1
 10
0.357500
 20
0.555180
 30
0.0
  0
LWPOLYLINE
  5
10d
100
AcDbEntity
  8
0
 62
7
100
AcDbPolyline
 90
1
 70
1
 10
5.007500
 20
3.410180
 30
0.0
  0
LWPOLYLINE
  5
10e
100
AcDbEntity
  8
0
 62
7
100
AcDbPolyline
 90
2
 70
0
 10
0.607500
 20
9.405180
 30
0.0
 10
9.407500
 20
9.405180
 30
0.0
  0
SPLINE
  5
10f
100
AcDbEntity
  8
0
 62
7
100
AcDbSpline
 70
8
 71
3
 72
8
 73
4
 74
0
 40
0
 40
0
 40
0
 40
0
 40
1
 40
1
 40
1
 40
1
 10
6.702500
 20
3.340180
 30
0.0
 10
6.480046
 20
3.340180
 30
0.0
 10
6.279496
 20
3.206177
 30
0.0
 10
6.194366
 20
3.000656
 30
0.0
  0
SPLINE
  5
110
100
AcDbEntity
  8
0
 62
7
100
AcDbSpline
 70
8
 71
3
 72
8
 73
4
 74
0
 40
0
 40
0
 40
0
 40
0
 40
1
 40
1
 40
1
 40
1
 10
6.194366
 20
3.000656
 30
0.0
 10
6.109237
 20
2.795135
 30
0.0
 10
6.156292
 20
2.558570
 30
0.0
 10
6.313591
 20
2.401271
 30
0.0
  0
SPLINE
  5
111
100
AcDbEntity
  8
0
 62
7
100
AcDbSpline
 70
8
 71
3
 72
8
 73
4
 74
0
 40
0
 40
0
 40
0
 40
0
 40
1
 40
1
 40
1
 40
1
 10
6.313591
 20
2.401271
 30
0.0
 10
6.470890
 20
2.243972
 30
0.0
 10
6.707455
 20
2.196917
 30
0.0
 10
6.912976
 20
2.282046
 30
0.0
  0
SPLINE
  5
112
100
AcDbEntity
  8
0
 62
7
100
AcDbSpline
 70
8
 71
3
 72
8
 73
4
 74
0
 40
0
 40
0
 40
0
 40
0
 40
1
 40
1
 40
1
 40
1
 10
6.912976
 20
2.282046
 30
0.0
 10
7.118497
 20
2.367176
 30
0.0
 10
7.252500
 20
2.567726
 30
0.0
 10
7.252500
 20
2.790180
 30
0.0
  0
SPLINE
  5
113
100
AcDbEntity
  8
0
 62
7
100
AcDbSpline
 70
8
 71
3
 72
8
 73
4
 74
0
 40
0
 40
0
 40
0
 40
0
 40
1
 40
1
 40
1
 40
1
 10
7.252500
 20
2.790180
 30
0.0
 10
7.252500
 20
2.936049
 30
0.0
 10
7.194554
 20
3.075944
 30
0.0
 10
7.091409
 20
3.179089
 30
0.0
  0
SPLINE
  5
114
100
AcDbEntity
  8
0
 62
7
100
AcDbSpline
 70
8
 71
3
 72
8
 73
4
 74
0
 40
0
 40
0
 40
0
 40
0
 40
1
 40
1
 40
1
 40
1
 10
7.091409
 20
3.179089
 30
0.0
 10
6.988264
 20
3.282234
 30
0.0
 10
6.848369
 20
3.340180
 30
0.0
 10
6.702500
 20
3.340180
 30
0.0
  0
LWPOLYLINE
  5
115
100
AcDbEntity
  8
0
 62
7
100
AcDbPolyline
 90
2
 70
0
 10
0.007500
 20
10.005180
 30
0.0
 10
10.007500
 20
10.005180
 30
0.0
  0
LWPOLYLINE
  5
116
100
AcDbEntity
  8
0
 62
7
100
AcDbPolyline
 90
1
 70
1
 10
6.702500
 20
3.340180
 30
0.0
  0
SPLINE
  5
117
100
AcDbEntity
  8
0
 62
7
100
AcDbSpline
 70
8
 71
3
 72
8
 73
4
 74
0
 40
0
 40
0
 40
0
 40
0
 40
1
 40
1
 40
1
 40
1
 10
6.697500
 20
1.195180
 30
0.0
 10
6.535715
 20
1.195180
 30
0.0
 10
6.389861
 20
1.097723
 30
0.0
 10
6.327948
 20
0.948253
 30
0.0
  0
SPLINE
  5
118
100
AcDbEntity
  8
0
 62
7
100
AcDbSpline
 70
8
 71
3
 72
8
 73
4
 74
0
 40
0
 40
0
 40
0
 40
0
 40
1
 40
1
 40
1
 40
1
 10
6.327948
 20
0.948253
 30
0.0
 10
6.266036
 20
0.798784
 30
0.0
 10
6.300258
 20
0.626736
 30
0.0
 10
6.414657
 20
0.512337
 30
0.0
  0
SPLINE
  5
119
100
AcDbEntity
  8
0
 62
7
100
AcDbSpline
 70
8
 71
3
 72
8
 73
4
 74
0
 40
0
 40
0
 40
0
 40
0
 40
1
 40
1
 40
1
 40
1
 10
6.414657
 20
0.512337
 30
0.0
 10
6.529056
 20
0.397938
 30
0.0
 10
6.701104
 20
0.363716
 30
0.0
 10
6.850573
 20
0.425628
 30
0.0
  0
SPLINE
  5
11a
100
AcDbEntity
  8
0
 62
7
100
AcDbSpline
 70
8
 71
3
 72
8
 73
4
 74
0
 40
0
 40
0
 40
0
 40
0
 40
1
 40
1
 40
1
 40
1
 10
6.850573
 20
0.425628
 30
0.0
 10
7.000043
 20
0.487541
 30
0.0
 10
7.097500
 20
0.633395
 30
0.0
 10
7.097500
 20
0.795180
 30
0.0
  0
SPLINE
  5
11b
100
AcDbEntity
  8
0
 62
7
100
AcDbSpline
 70
8
 71
3
 72
8
 73
4
 74
0
 40
0
 40
0
 40
0
 40
0
 40
1
 40
1
 40
1
 40
1
 10
7.097500
 20
0.795180
 30
0.0
 10
7.097500
 20
0.901267
 30
0.0
 10
7.055357
 20
1.003008
 30
0.0
 10
6.980343
 20
1.078023
 30
0.0
  0
SPLINE
  5
11c
100
AcDbEntity
  8
0
 62
7
100
AcDbSpline
 70
8
 71
3
 72
8
 73
4
 74
0
 40
0
 40
0
 40
0
 40
0
 40
1
 40
1
 40
1
 40
1
 10
6.980343
 20
1.078023
 30
0.0
 10
6.905328
 20
1.153037
 30
0.0
 10
6.803587
 20
1.195180
 30
0.0
 10
6.697500
 20
1.195180
 30
0.0
  0
LWPOLYLINE
  5
11d
100
AcDbEntity
  8
0
 62
7
100
AcDbPolyline
 90
2
 70
0
 10
10.007500
 20
0.005180
 30
0.0
 10
0.007500
 20
0.005180
 30
0.0
  0
SPLINE
  5
11e
100
AcDbEntity
  8
0
 62
7
100
AcDbSpline
 70
8
 71
3
 72
8
 73
4
 74
0
 40
0
 40
0
 40
0
 40
0
 40
1
 40
1
 40
1
 40
1
 10
8.577500
 20
1.185180
 30
0.0
 10
8.415715
 20
1.185180
 30
0.0
 10
8.269861
 20
1.087723
 30
0.0
 10
8.207948
 20
0.938253
 30
0.0
  0
SPLINE
  5
11f
100
AcDbEntity
  8
0
 62
7
100
AcDbSpline
 70
8
 71
3
 72
8
 73
4
 74
0
 40
0
 40
0
 40
0
 40
0
 40
1
 40
1
 40
1
 40
1
 10
8.207948
 20
0.938253
 30
0.0
 10
8.146036
 20
0.788784
 30
0.0
 10
8.180258
 20
0.616736
 30
0.0
 10
8.294657
 20
0.502337
 30
0.0
  0
SPLINE
  5
120
100
AcDbEntity
  8
0
 62
7
100
AcDbSpline
 70
8
 71
3
 72
8
 73
4
 74
0
 40
0
 40
0
 40
0
 40
0
 40
1
 40
1
 40
1
 40
1
 10
8.294657
 20
0.502337
 30
0.0
 10
8.409056
 20
0.387938
 30
0.0
 10
8.581104
 20
0.353716
 30
0.0
 10
8.730573
 20
0.415628
 30
0.0
  0
SPLINE
  5
121
100
AcDbEntity
  8
0
 62
7
100
AcDbSpline
 70
8
 71
3
 72
8
 73
4
 74
0
 40
0
 40
0
 40
0
 40
0
 40
1
 40
1
 40
1
 40
1
 10
8.730573
 20
0.415628
 30
0.0
 10
8.880043
 20
0.477541
 30
0.0
 10
8.977500
 20
0.623395
 30
0.0
 10
8.977500
 20
0.785180
 30
0.0
  0
SPLINE
  5
122
100
AcDbEntity
  8
0
 62
7
100
AcDbSpline
 70
8
 71
3
 72
8
 73
4
 74
0
 40
0
 40
0
 40
0
 40
0
 40
1
 40
1
 40
1
 40
1
 10
8.977500
 20
0.785180
 30
0.0
 10
8.977500
 20
1.006094
 30
0.0
 10
8.798414
 20
1.185180
 30
0.0
 10
8.577500
 20
1.185180
 30
0.0
  0
LWPOLYLINE
  5
123
100
AcDbEntity
  8
0
 62
7
100
AcDbPolyline
 90
1
 70
1
 10
6.697500
 20
1.195180
 30
0.0
  0
SPLINE
  5
124
100
AcDbEntity
  8
0
 62
7
100
AcDbSpline
 70
8
 71
3
 72
8
 73
4
 74
0
 40
0
 40
0
 40
0
 40
0
 40
1
 40
1
 40
1
 40
1
 10
1.402500
 20
1.160180
 30
0.0
 10
1.240715
 20
1.160180
 30
0.0
 10
1.094861
 20
1.062723
 30
0.0
 10
1.032948
 20
0.913253
 30
0.0
  0
SPLINE
  5
125
100
AcDbEntity
  8
0
 62
7
100
AcDbSpline
 70
8
 71
3
 72
8
 73
4
 74
0
 40
0
 40
0
 40
0
 40
0
 40
1
 40
1
 40
1
 40
1
 10
1.032948
 20
0.913253
 30
0.0
 10
0.971036
 20
0.763784
 30
0.0
 10
1.005258
 20
0.591736
 30
0.0
 10
1.119657
 20
0.477337
 30
0.0
  0
SPLINE
  5
126
100
AcDbEntity
  8
0
 62
7
100
AcDbSpline
 70
8
 71
3
 72
8
 73
4
 74
0
 40
0
 40
0
 40
0
 40
0
 40
1
 40
1
 40
1
 40
1
 10
1.119657
 20
0.477337
 30
0.0
 10
1.234056
 20
0.362938
 30
0.0
 10
1.406104
 20
0.328716
 30
0.0
 10
1.555573
 20
0.390628
 30
0.0
  0
SPLINE
  5
127
100
AcDbEntity
  8
0
 62
7
100
AcDbSpline
 70
8
 71
3
 72
8
 73
4
 74
0
 40
0
 40
0
 40
0
 40
0
 40
1
 40
1
 40
1
 40
1
 10
1.555573
 20
0.390628
 30
0.0
 10
1.705043
 20
0.452541
 30
0.0
 10
1.802500
 20
0.598395
 30
0.0
 10
1.802500
 20
0.760180
 30
0.0
  0
SPLINE
  5
128
100
AcDbEntity
  8
0
 62
7
100
AcDbSpline
 70
8
 71
3
 72
8
 73
4
 74
0
 40
0
 40
0
 40
0
 40
0
 40
1
 40
1
 40
1
 40
1
 10
1.802500
 20
0.760180
 30
0.0
 10
1.802500
 20
0.866267
 30
0.0
 10
1.760357
 20
0.968008
 30
0.0
 10
1.685343
 20
1.043023
 30
0.0
  0
SPLINE
  5
129
100
AcDbEntity
  8
0
 62
7
100
AcDbSpline
 70
8
 71
3
 72
8
 73
4
 74
0
 40
0
 40
0
 40
0
 40
0
 40
1
 40
1
 40
1
 40
1
 10
1.685343
 20
1.043023
 30
0.0
 10
1.610328
 20
1.118037
 30
0.0
 10
1.508587
 20
1.160180
 30
0.0
 10
1.402500
 20
1.160180
 30
0.0
  0
LWPOLYLINE
  5
12a
100
AcDbEntity
  8
0
 62
7
100
AcDbPolyline
 90
1
 70
1
 10
8.577500
 20
1.185180
 30
0.0
  0
SPLINE
  5
12b
100
AcDbEntity
  8
0
 62
7
100
AcDbSpline
 70
8
 71
3
 72
8
 73
4
 74
0
 40
0
 40
0
 40
0
 40
0
 40
1
 40
1
 40
1
 40
1
 10
3.307500
 20
1.185180
 30
0.0
 10
3.145715
 20
1.185180
 30
0.0
 10
2.999861
 20
1.087723
 30
0.0
 10
2.937948
 20
0.938253
 30
0.0
  0
SPLINE
  5
12c
100
AcDbEntity
  8
0
 62
7
100
AcDbSpline
 70
8
 71
3
 72
8
 73
4
 74
0
 40
0
 40
0
 40
0
 40
0
 40
1
 40
1
 40
1
 40
1
 10
2.937948
 20
0.938253
 30
0.0
 10
2.876036
 20
0.788784
 30
0.0
 10
2.910258
 20
0.616736
 30
0.0
 10
3.024657
 20
0.502337
 30
0.0
  0
SPLINE
  5
12d
100
AcDbEntity
  8
0
 62
7
100
AcDbSpline
 70
8
 71
3
 72
8
 73
4
 74
0
 40
0
 40
0
 40
0
 40
0
 40
1
 40
1
 40
1
 40
1
 10
3.024657
 20
0.502337
 30
0.0
 10
3.139056
 20
0.387938
 30
0.0
 10
3.311104
 20
0.353716
 30
0.0
 10
3.460573
 20
0.415628
 30
0.0
  0
SPLINE
  5
12e
100
AcDbEntity
  8
0
 62
7
100
AcDbSpline
 70
8
 71
3
 72
8
 73
4
 74
0
 40
0
 40
0
 40
0
 40
0
 40
1
 40
1
 40
1
 40
1
 10
3.460573
 20
0.415628
 30
0.0
 10
3.610043
 20
0.477541
 30
0.0
 10
3.707500
 20
0.623395
 30
0.0
 10
3.707500
 20
0.785180
 30
0.0
  0
SPLINE
  5
12f
100
AcDbEntity
  8
0
 62
7
100
AcDbSpline
 70
8
 71
3
 72
8
 73
4
 74
0
 40
0
 40
0
 40
0
 40
0
 40
1
 40
1
 40
1
 40
1
 10
3.707500
 20
0.785180
 30
0.0
 10
3.707500
 20
1.006094
 30
0.0
 10
3.528414
 20
1.185180
 30
0.0
 10
3.307500
 20
1.185180
 30
0.0
  0
LWPOLYLINE
  5
130
100
AcDbEntity
  8
0
 62
7
100
AcDbPolyline
 90
1
 70
1
 10
1.402500
 20
1.160180
 30
0.0
  0
SPLINE
  5
131
100
AcDbEntity
  8
0
 62
7
100
AcDbSpline
 70
8
 71
3
 72
8
 73
4
 74
0
 40
0
 40
0
 40
0
 40
0
 40
1
 40
1
 40
1
 40
1
 10
9.657500
 20
0.555180
 30
0.0
 10
9.576608
 20
0.555180
 30
0.0
 10
9.503680
 20
0.506452
 30
0.0
 10
9.472724
 20
0.431717
 30
0.0
  0
SPLINE
  5
132
100
AcDbEntity
  8
0
 62
7
100
AcDbSpline
 70
8
 71
3
 72
8
 73
4
 74
0
 40
0
 40
0
 40
0
 40
0
 40
1
 40
1
 40
1
 40
1
 10
9.472724
 20
0.431717
 30
0.0
 10
9.441768
 20
0.356982
 30
0.0
 10
9.458879
 20
0.270958
 30
0.0
 10
9.516079
 20
0.213759
 30
0.0
  0
SPLINE
  5
133
100
AcDbEntity
  8
0
 62
7
100
AcDbSpline
 70
8
 71
3
 72
8
 73
4
 74
0
 40
0
 40
0
 40
0
 40
0
 40
1
 40
1
 40
1
 40
1
 10
9.516079
 20
0.213759
 30
0.0
 10
9.573278
 20
0.156559
 30
0.0
 10
9.659302
 20
0.139448
 30
0.0
 10
9.734037
 20
0.170404
 30
0.0
  0
SPLINE
  5
134
100
AcDbEntity
  8
0
 62
7
100
AcDbSpline
 70
8
 71
3
 72
8
 73
4
 74
0
 40
0
 40
0
 40
0
 40
0
 40
1
 40
1
 40
1
 40
1
 10
9.734037
 20
0.170404
 30
0.0
 10
9.808772
 20
0.201360
 30
0.0
 10
9.857500
 20
0.274288
 30
0.0
 10
9.857500
 20
0.355180
 30
0.0
  0
SPLINE
  5
135
100
AcDbEntity
  8
0
 62
7
100
AcDbSpline
 70
8
 71
3
 72
8
 73
4
 74
0
 40
0
 40
0
 40
0
 40
0
 40
1
 40
1
 40
1
 40
1
 10
9.857500
 20
0.355180
 30
0.0
 10
9.857500
 20
0.408223
 30
0.0
 10
9.836429
 20
0.459094
 30
0.0
 10
9.798921
 20
0.496601
 30
0.0
  0
SPLINE
  5
136
100
AcDbEntity
  8
0
 62
7
100
AcDbSpline
 70
8
 71
3
 72
8
 73
4
 74
0
 40
0
 40
0
 40
0
 40
0
 40
1
 40
1
 40
1
 40
1
 10
9.798921
 20
0.496601
 30
0.0
 10
9.761414
 20
0.534109
 30
0.0
 10
9.710543
 20
0.555180
 30
0.0
 10
9.657500
 20
0.555180
 30
0.0
  0
LWPOLYLINE
  5
137
100
AcDbEntity
  8
0
 62
7
100
AcDbPolyline
 90
1
 70
1
 10
3.307500
 20
1.185180
 30
0.0
  0
SPLINE
  5
138
100
AcDbEntity
  8
0
 62
7
100
AcDbSpline
 70
8
 71
3
 72
8
 73
4
 74
0
 40
0
 40
0
 40
0
 40
0
 40
1
 40
1
 40
1
 40
1
 10
1.407500
 20
3.365180
 30
0.0
 10
1.185046
 20
3.365180
 30
0.0
 10
0.984496
 20
3.231177
 30
0.0
 10
0.899366
 20
3.025656
 30
0.0
  0
SPLINE
  5
139
100
AcDbEntity
  8
0
 62
7
100
AcDbSpline
 70
8
 71
3
 72
8
 73
4
 74
0
 40
0
 40
0
 40
0
 40
0
 40
1
 40
1
 40
1
 40
1
 10
0.899366
 20
3.025656
 30
0.0
 10
0.814237
 20
2.820135
 30
0.0
 10
0.861292
 20
2.583570
 30
0.0
 10
1.018591
 20
2.426271
 30
0.0
  0
SPLINE
  5
13a
100
AcDbEntity
  8
0
 62
7
100
AcDbSpline
 70
8
 71
3
 72
8
 73
4
 74
0
 40
0
 40
0
 40
0
 40
0
 40
1
 40
1
 40
1
 40
1
 10
1.018591
 20
2.426271
 30
0.0
 10
1.175890
 20
2.268972
 30
0.0
 10
1.412455
 20
2.221917
 30
0.0
 10
1.617976
 20
2.307046
 30
0.0
  0
SPLINE
  5
13b
100
AcDbEntity
  8
0
 62
7
100
AcDbSpline
 70
8
 71
3
 72
8
 73
4
 74
0
 40
0
 40
0
 40
0
 40
0
 40
1
 40
1
 40
1
 40
1
 10
1.617976
 20
2.307046
 30
0.0
 10
1.823497
 20
2.392176
 30
0.0
 10
1.957500
 20
2.592726
 30
0.0
 10
1.957500
 20
2.815180
 30
0.0
  0
SPLINE
  5
13c
100
AcDbEntity
  8
0
 62
7
100
AcDbSpline
 70
8
 71
3
 72
8
 73
4
 74
0
 40
0
 40
0
 40
0
 40
0
 40
1
 40
1
 40
1
 40
1
 10
1.957500
 20
2.815180
 30
0.0
 10
1.957500
 20
2.961049
 30
0.0
 10
1.899554
 20
3.100944
 30
0.0
 10
1.796409
 20
3.204089
 30
0.0
  0
SPLINE
  5
13d
100
AcDbEntity
  8
0
 62
7
100
AcDbSpline
 70
8
 71
3
 72
8
 73
4
 74
0
 40
0
 40
0
 40
0
 40
0
 40
1
 40
1
 40
1
 40
1
 10
1.796409
 20
3.204089
 30
0.0
 10
1.693264
 20
3.307234
 30
0.0
 10
1.553369
 20
3.365180
 30
0.0
 10
1.407500
 20
3.365180
 30
0.0
  0
LWPOLYLINE
  5
13e
100
AcDbEntity
  8
0
 62
7
100
AcDbPolyline
 90
1
 70
1
 10
9.657500
 20
0.555180
 30
0.0
  0
SPLINE
  5
13f
100
AcDbEntity
  8
0
 62
7
100
AcDbSpline
 70
8
 71
3
 72
8
 73
4
 74
0
 40
0
 40
0
 40
0
 40
0
 40
1
 40
1
 40
1
 40
1
 10
0.357500
 20
9.855180
 30
0.0
 10
0.276608
 20
9.855180
 30
0.0
 10
0.203680
 20
9.806452
 30
0.0
 10
0.172724
 20
9.731717
 30
0.0
  0
SPLINE
  5
140
100
AcDbEntity
  8
0
 62
7
100
AcDbSpline
 70
8
 71
3
 72
8
 73
4
 74
0
 40
0
 40
0
 40
0
 40
0
 40
1
 40
1
 40
1
 40
1
 10
0.172724
 20
9.731717
 30
0.0
 10
0.141768
 20
9.656982
 30
0.0
 10
0.158879
 20
9.570958
 30
0.0
 10
0.216079
 20
9.513759
 30
0.0
  0
SPLINE
  5
141
100
AcDbEntity
  8
0
 62
7
100
AcDbSpline
 70
8
 71
3
 72
8
 73
4
 74
0
 40
0
 40
0
 40
0
 40
0
 40
1
 40
1
 40
1
 40
1
 10
0.216079
 20
9.513759
 30
0.0
 10
0.273278
 20
9.456559
 30
0.0
 10
0.359302
 20
9.439448
 30
0.0
 10
0.434037
 20
9.470404
 30
0.0
  0
SPLINE
  5
142
100
AcDbEntity
  8
0
 62
7
100
AcDbSpline
 70
8
 71
3
 72
8
 73
4
 74
0
 40
0
 40
0
 40
0
 40
0
 40
1
 40
1
 40
1
 40
1
 10
0.434037
 20
9.470404
 30
0.0
 10
0.508772
 20
9.501360
 30
0.0
 10
0.557500
 20
9.574288
 30
0.0
 10
0.557500
 20
9.655180
 30
0.0
  0
SPLINE
  5
143
100
AcDbEntity
  8
0
 62
7
100
AcDbSpline
 70
8
 71
3
 72
8
 73
4
 74
0
 40
0
 40
0
 40
0
 40
0
 40
1
 40
1
 40
1
 40
1
 10
0.557500
 20
9.655180
 30
0.0
 10
0.557500
 20
9.708223
 30
0.0
 10
0.536429
 20
9.759094
 30
0.0
 10
0.498921
 20
9.796601
 30
0.0
  0
SPLINE
  5
144
100
AcDbEntity
  8
0
 62
7
100
AcDbSpline
 70
8
 71
3
 72
8
 73
4
 74
0
 40
0
 40
0
 40
0
 40
0
 40
1
 40
1
 40
1
 40
1
 10
0.498921
 20
9.796601
 30
0.0
 10
0.461414
 20
9.834109
 30
0.0
 10
0.410543
 20
9.855180
 30
0.0
 10
0.357500
 20
9.855180
 30
0.0
  0
LWPOLYLINE
  5
145
100
AcDbEntity
  8
0
 62
7
100
AcDbPolyline
 90
1
 70
1
 10
1.407500
 20
3.365180
 30
0.0
  0
SPLINE
  5
146
100
AcDbEntity
  8
0
 62
7
100
AcDbSpline
 70
8
 71
3
 72
8
 73
4
 74
0
 40
0
 40
0
 40
0
 40
0
 40
1
 40
1
 40
1
 40
1
 10
3.302500
 20
3.330180
 30
0.0
 10
3.080046
 20
3.330180
 30
0.0
 10
2.879496
 20
3.196177
 30
0.0
 10
2.794366
 20
2.990656
 30
0.0
  0
SPLINE
  5
147
100
AcDbEntity
  8
0
 62
7
100
AcDbSpline
 70
8
 71
3
 72
8
 73
4
 74
0
 40
0
 40
0
 40
0
 40
0
 40
1
 40
1
 40
1
 40
1
 10
2.794366
 20
2.990656
 30
0.0
 10
2.709237
 20
2.785135
 30
0.0
 10
2.756292
 20
2.548570
 30
0.0
 10
2.913591
 20
2.391271
 30
0.0
  0
SPLINE
  5
148
100
AcDbEntity
  8
0
 62
7
100
AcDbSpline
 70
8
 71
3
 72
8
 73
4
 74
0
 40
0
 40
0
 40
0
 40
0
 40
1
 40
1
 40
1
 40
1
 10
2.913591
 20
2.391271
 30
0.0
 10
3.070890
 20
2.233972
 30
0.0
 10
3.307455
 20
2.186917
 30
0.0
 10
3.512976
 20
2.272046
 30
0.0
  0
SPLINE
  5
149
100
AcDbEntity
  8
0
 62
7
100
AcDbSpline
 70
8
 71
3
 72
8
 73
4
 74
0
 40
0
 40
0
 40
0
 40
0
 40
1
 40
1
 40
1
 40
1
 10
3.512976
 20
2.272046
 30
0.0
 10
3.718497
 20
2.357176
 30
0.0
 10
3.852500
 20
2.557726
 30
0.0
 10
3.852500
 20
2.780180
 30
0.0
  0
SPLINE
  5
14a
100
AcDbEntity
  8
0
 62
7
100
AcDbSpline
 70
8
 71
3
 72
8
 73
4
 74
0
 40
0
 40
0
 40
0
 40
0
 40
1
 40
1
 40
1
 40
1
 10
3.852500
 20
2.780180
 30
0.0
 10
3.852500
 20
2.926049
 30
0.0
 10
3.794554
 20
3.065944
 30
0.0
 10
3.691409
 20
3.169089
 30
0.0
  0
SPLINE
  5
14b
100
AcDbEntity
  8
0
 62
7
100
AcDbSpline
 70
8
 71
3
 72
8
 73
4
 74
0
 40
0
 40
0
 40
0
 40
0
 40
1
 40
1
 40
1
 40
1
 10
3.691409
 20
3.169089
 30
0.0
 10
3.588264
 20
3.272234
 30
0.0
 10
3.448369
 20
3.330180
 30
0.0
 10
3.302500
 20
3.330180
 30
0.0
  0
LWPOLYLINE
  5
14c
100
AcDbEntity
  8
0
 62
7
100
AcDbPolyline
 90
1
 70
1
 10
0.357500
 20
9.855180
 30
0.0
  0
SPLINE
  5
14d
100
AcDbEntity
  8
0
 62
7
100
AcDbSpline
 70
8
 71
3
 72
8
 73
4
 74
0
 40
0
 40
0
 40
0
 40
0
 40
1
 40
1
 40
1
 40
1
 10
5.007500
 20
1.360180
 30
0.0
 10
4.744600
 20
1.360180
 30
0.0
 10
4.507586
 20
1.201813
 30
0.0
 10
4.406978
 20
0.958924
 30
0.0
  0
SPLINE
  5
14e
100
AcDbEntity
  8
0
 62
7
100
AcDbSpline
 70
8
 71
3
 72
8
 73
4
 74
0
 40
0
 40
0
 40
0
 40
0
 40
1
 40
1
 40
1
 40
1
 10
4.406978
 20
0.958924
 30
0.0
 10
4.306371
 20
0.716036
 30
0.0
 10
4.361982
 20
0.436459
 30
0.0
 10
4.547881
 20
0.250561
 30
0.0
  0
SPLINE
  5
14f
100
AcDbEntity
  8
0
 62
7
100
AcDbSpline
 70
8
 71
3
 72
8
 73
4
 74
0
 40
0
 40
0
 40
0
 40
0
 40
1
 40
1
 40
1
 40
1
 10
4.547881
 20
0.250561
 30
0.0
 10
4.733779
 20
0.064662
 30
0.0
 10
5.013356
 20
0.009051
 30
0.0
 10
5.256244
 20
0.109658
 30
0.0
  0
SPLINE
  5
150
100
AcDbEntity
  8
0
 62
7
100
AcDbSpline
 70
8
 71
3
 72
8
 73
4
 74
0
 40
0
 40
0
 40
0
 40
0
 40
1
 40
1
 40
1
 40
1
 10
5.256244
 20
0.109658
 30
0.0
 10
5.499133
 20
0.210266
 30
0.0
 10
5.657500
 20
0.447280
 30
0.0
 10
5.657500
 20
0.710180
 30
0.0
  0
SPLINE
  5
151
100
AcDbEntity
  8
0
 62
7
100
AcDbSpline
 70
8
 71
3
 72
8
 73
4
 74
0
 40
0
 40
0
 40
0
 40
0
 40
1
 40
1
 40
1
 40
1
 10
5.657500
 20
0.710180
 30
0.0
 10
5.657500
 20
0.882571
 30
0.0
 10
5.589018
 20
1.047901
 30
0.0
 10
5.467119
 20
1.169799
 30
0.0
  0
SPLINE
  5
152
100
AcDbEntity
  8
0
 62
7
100
AcDbSpline
 70
8
 71
3
 72
8
 73
4
 74
0
 40
0
 40
0
 40
0
 40
0
 40
1
 40
1
 40
1
 40
1
 10
5.467119
 20
1.169799
 30
0.0
 10
5.345221
 20
1.291698
 30
0.0
 10
5.179891
 20
1.360180
 30
0.0
 10
5.007500
 20
1.360180
 30
0.0
  0
LWPOLYLINE
  5
153
100
AcDbEntity
  8
0
 62
7
100
AcDbPolyline
 90
1
 70
1
 10
3.302500
 20
3.330180
 30
0.0
  0
LWPOLYLINE
  5
154
100
AcDbEntity
  8
0
 62
7
100
AcDbPolyline
 90
1
 70
1
 10
5.007500
 20
1.360180
 30
0.0
  0
LWPOLYLINE
  5
155
100
AcDbEntity
  8
0
 62
7
100
AcDbPolyline
 90
2
 70
0
 10
9.407500
 20
9.405180
 30
0.0
 10
9.407500
 20
3.605180
 30
0.0
  0
LWPOLYLINE
  5
156
100
AcDbEntity
  8
0
 62
7
100
AcDbPolyline
 90
2
 70
0
 10
10.007500
 20
10.005180
 30
0.0
 10
10.007500
 20
0.005180
 30
0.0
  0
LWPOLYLINE
  5
157
100
AcDbEntity
  8
0
 62
7
100
AcDbPolyline
 90
2
 70
0
 10
0.607500
 20
9.405180
 30
0.0
 10
0.607500
 20
3.605180
 30
0.0
  0
SPLINE
  5
158
100
AcDbEntity
  8
0
 62
7
100
AcDbSpline
 70
8
 71
3
 72
8
 73
4
 74
0
 40
0
 40
0
 40
0
 40
0
 40
1
 40
1
 40
1
 40
1
 10
9.657500
 20
9.855180
 30
0.0
 10
9.576608
 20
9.855180
 30
0.0
 10
9.503680
 20
9.806452
 30
0.0
 10
9.472724
 20
9.731717
 30
0.0
  0
SPLINE
  5
159
100
AcDbEntity
  8
0
 62
7
100
AcDbSpline
 70
8
 71
3
 72
8
 73
4
 74
0
 40
0
 40
0
 40
0
 40
0
 40
1
 40
1
 40
1
 40
1
 10
9.472724
 20
9.731717
 30
0.0
 10
9.441768
 20
9.656982
 30
0.0
 10
9.458879
 20
9.570958
 30
0.0
 10
9.516079
 20
9.513759
 30
0.0
  0
SPLINE
  5
15a
100
AcDbEntity
  8
0
 62
7
100
AcDbSpline
 70
8
 71
3
 72
8
 73
4
 74
0
 40
0
 40
0
 40
0
 40
0
 40
1
 40
1
 40
1
 40
1
 10
9.516079
 20
9.513759
 30
0.0
 10
9.573278
 20
9.456559
 30
0.0
 10
9.659302
 20
9.439448
 30
0.0
 10
9.734037
 20
9.470404
 30
0.0
  0
SPLINE
  5
15b
100
AcDbEntity
  8
0
 62
7
100
AcDbSpline
 70
8
 71
3
 72
8
 73
4
 74
0
 40
0
 40
0
 40
0
 40
0
 40
1
 40
1
 40
1
 40
1
 10
9.734037
 20
9.470404
 30
0.0
 10
9.808772
 20
9.501360
 30
0.0
 10
9.857500
 20
9.574288
 30
0.0
 10
9.857500
 20
9.655180
 30
0.0
  0
SPLINE
  5
15c
100
AcDbEntity
  8
0
 62
7
100
AcDbSpline
 70
8
 71
3
 72
8
 73
4
 74
0
 40
0
 40
0
 40
0
 40
0
 40
1
 40
1
 40
1
 40
1
 10
9.857500
 20
9.655180
 30
0.0
 10
9.857500
 20
9.708223
 30
0.0
 10
9.836429
 20
9.759094
 30
0.0
 10
9.798921
 20
9.796601
 30
0.0
  0
SPLINE
  5
15d
100
AcDbEntity
  8
0
 62
7
100
AcDbSpline
 70
8
 71
3
 72
8
 73
4
 74
0
 40
0
 40
0
 40
0
 40
0
 40
1
 40
1
 40
1
 40
1
 10
9.798921
 20
9.796601
 30
0.0
 10
9.761414
 20
9.834109
 30
0.0
 10
9.710543
 20
9.855180
 30
0.0
 10
9.657500
 20
9.855180
 30
0.0
  0
LWPOLYLINE
  5
15e
100
AcDbEntity
  8
0
 62
7
100
AcDbPolyline
 90
2
 70
0
 10
0.007500
 20
0.005180
 30
0.0
 10
0.007500
 20
10.005180
 30
0.0
  0
SPLINE
  5
15f
100
AcDbEntity
  8
0
 62
7
100
AcDbSpline
 70
8
 71
3
 72
8
 73
4
 74
0
 40
0
 40
0
 40
0
 40
0
 40
1
 40
1
 40
1
 40
1
 10
8.657500
 20
3.360180
 30
0.0
 10
8.435046
 20
3.360180
 30
0.0
 10
8.234496
 20
3.226177
 30
0.0
 10
8.149366
 20
3.020656
 30
0.0
  0
SPLINE
  5
160
100
AcDbEntity
  8
0
 62
7
100
AcDbSpline
 70
8
 71
3
 72
8
 73
4
 74
0
 40
0
 40
0
 40
0
 40
0
 40
1
 40
1
 40
1
 40
1
 10
8.149366
 20
3.020656
 30
0.0
 10
8.064237
 20
2.815135
 30
0.0
 10
8.111292
 20
2.578570
 30
0.0
 10
8.268591
 20
2.421271
 30
0.0
  0
SPLINE
  5
161
100
AcDbEntity
  8
0
 62
7
100
AcDbSpline
 70
8
 71
3
 72
8
 73
4
 74
0
 40
0
 40
0
 40
0
 40
0
 40
1
 40
1
 40
1
 40
1
 10
8.268591
 20
2.421271
 30
0.0
 10
8.425890
 20
2.263972
 30
0.0
 10
8.662455
 20
2.216917
 30
0.0
 10
8.867976
 20
2.302046
 30
0.0
  0
SPLINE
  5
162
100
AcDbEntity
  8
0
 62
7
100
AcDbSpline
 70
8
 71
3
 72
8
 73
4
 74
0
 40
0
 40
0
 40
0
 40
0
 40
1
 40
1
 40
1
 40
1
 10
8.867976
 20
2.302046
 30
0.0
 10
9.073497
 20
2.387176
 30
0.0
 10
9.207500
 20
2.587726
 30
0.0
 10
9.207500
 20
2.810180
 30
0.0
  0
SPLINE
  5
163
100
AcDbEntity
  8
0
 62
7
100
AcDbSpline
 70
8
 71
3
 72
8
 73
4
 74
0
 40
0
 40
0
 40
0
 40
0
 40
1
 40
1
 40
1
 40
1
 10
9.207500
 20
2.810180
 30
0.0
 10
9.207500
 20
2.956049
 30
0.0
 10
9.149554
 20
3.095944
 30
0.0
 10
9.046409
 20
3.199089
 30
0.0
  0
SPLINE
  5
164
100
AcDbEntity
  8
0
 62
7
100
AcDbSpline
 70
8
 71
3
 72
8
 73
4
 74
0
 40
0
 40
0
 40
0
 40
0
 40
1
 40
1
 40
1
 40
1
 10
9.046409
 20
3.199089
 30
0.0
 10
8.943264
 20
3.302234
 30
0.0
 10
8.803369
 20
3.360180
 30
0.0
 10
8.657500
 20
3.360180
 30
0.0
  0
LWPOLYLINE
  5
165
100
AcDbEntity
  8
0
 62
7
100
AcDbPolyline
 90
1
 70
1
 10
9.657500
 20
9.855180
 30
0.0
  0
LWPOLYLINE
  5
166
100
AcDbEntity
  8
0
 62
7
100
AcDbPolyline
 90
1
 70
1
 10
8.657500
 20
3.360180
 30
0.0
  0
LWPOLYLINE
  5
167
100
AcDbEntity
  8
0
 62
7
100
AcDbPolyline
 90
2
 70
0
 10
0.607500
 20
3.605180
 30
0.0
 10
9.407500
 20
3.605180
 30
0.0
  0
ENDSEC
  0
SECTION
  2
OBJECTS
  0
DICTIONARY
  5
C
330
0
100
AcDbDictionary
  3
ACAD_GROUP
350
D
  3
ACAD_MLINESTYLE
350
17
  0
DICTIONARY
  5
D
330
C
100
AcDbDictionary
  0
DICTIONARY
  5
1A
330
C
100
AcDbDictionary
  0
DICTIONARY
  5
17
330
C
100
AcDbDictionary
  3
STANDARD
350
18
  0
DICTIONARY
  5
19
330
C
100
AcDbDictionary
  0
ENDSEC
  0
EOF
